<?xml version="1.0" encoding="utf-8"?>
<!-- Generator: Adobe Illustrator 24.1.2, SVG Export Plug-In . SVG Version: 6.00 Build 0)  -->
<svg version="1.1" id="Layer_1" xmlns="http://www.w3.org/2000/svg" xmlns:xlink="http://www.w3.org/1999/xlink" x="0px" y="0px"
	 viewBox="0 0 1280 250" style="enable-background:new 0 0 1280 250;" xml:space="preserve">
<style type="text/css">
	.st0{fill:#231F20;}
	.st1{fill:#FFFFFF;}
	.st2{fill:none;stroke:#231F20;stroke-width:2;stroke-miterlimit:10;}
	.st3{fill:none;}
	.st4{font-family:'TwCenMT-Regular';}
	.st5{font-size:62.476px;}
	.st6{letter-spacing:18;}
	.st7{font-size:40.1631px;}
	.st8{letter-spacing:12;}
	.st9{fill:#231F20;stroke:#231F20;stroke-width:0.5;stroke-miterlimit:10;}
</style>
<path class="st0" d="M149.2,126.1c0.97,0,1.76,0.79,1.76,1.76c0,0.97-0.79,1.76-1.76,1.76c-0.97,0-1.76-0.79-1.76-1.76
	C147.44,126.89,148.22,126.1,149.2,126.1L149.2,126.1z M149.2,134.27c3.54,0,6.41-2.87,6.41-6.4c0-3.54-2.87-6.4-6.41-6.4
	s-6.4,2.87-6.4,6.4C142.79,131.4,145.66,134.27,149.2,134.27L149.2,134.27z"/>
<path class="st0" d="M149.2,130.73c-0.99,0-1.95-0.51-2.48-1.43c-0.79-1.37-0.32-3.12,1.05-3.91c0.45-0.26,0.94-0.38,1.43-0.38
	c0.99,0,1.95,0.51,2.48,1.43c0.79,1.37,0.32,3.12-1.05,3.91C150.18,130.6,149.68,130.73,149.2,130.73L149.2,130.73z M147.28,117.65
	c-1.13,0.21-2.24,0.6-3.28,1.21c-0.16,0.09-0.3,0.19-0.45,0.29c0.32,0.98,0.27,2.09-0.23,3.09c-0.71,1.4-2.13,2.2-3.59,2.2
	c-0.11,0-0.22,0-0.33-0.01c-0.44,1.27-0.64,2.62-0.57,3.98c1.02,0.21,1.95,0.81,2.57,1.75c0.92,1.41,0.83,3.19-0.07,4.49
	c0.9,1.05,1.97,1.88,3.16,2.49c0.69-0.78,1.68-1.29,2.8-1.35c0.07,0,0.15-0.01,0.22-0.01c1.59,0,2.99,0.94,3.64,2.31
	c1.12-0.21,2.23-0.6,3.28-1.21c0.15-0.09,0.3-0.19,0.45-0.29c-0.33-0.99-0.28-2.09,0.23-3.09c0.71-1.4,2.12-2.2,3.59-2.2
	c0.11,0,0.22,0,0.33,0.01c0.45-1.27,0.64-2.62,0.57-3.98c-1.02-0.21-1.95-0.81-2.57-1.75c-0.92-1.41-0.83-3.19,0.08-4.49
	c-0.9-1.05-1.98-1.88-3.16-2.49c-0.69,0.78-1.68,1.29-2.8,1.35c-0.07,0-0.14,0.01-0.22,0.01
	C149.32,119.96,147.92,119.02,147.28,117.65L147.28,117.65z M149.2,131.61c0.66,0,1.3-0.17,1.87-0.5c0.86-0.5,1.48-1.31,1.74-2.27
	c0.26-0.97,0.12-1.97-0.38-2.84c-0.66-1.15-1.91-1.87-3.24-1.87c-0.65,0-1.3,0.17-1.87,0.5c-1.79,1.03-2.4,3.33-1.37,5.11
	C146.62,130.89,147.86,131.61,149.2,131.61L149.2,131.61z M146.83,118.65c0.9,1.35,2.44,2.19,4.08,2.19c0.09,0,0.17,0,0.26-0.01
	c1.08-0.06,2.08-0.46,2.9-1.14c0.71,0.42,1.35,0.93,1.93,1.52c-0.77,1.54-0.68,3.38,0.28,4.86c0.59,0.91,1.44,1.58,2.44,1.94
	c-0.01,0.82-0.13,1.63-0.35,2.43c-1.73,0.11-3.27,1.11-4.07,2.67c-0.49,0.96-0.65,2.04-0.46,3.09c-0.71,0.4-1.47,0.7-2.28,0.9
	c-0.9-1.35-2.44-2.19-4.08-2.19c-0.08,0-0.17,0-0.26,0.01c-1.08,0.06-2.08,0.46-2.9,1.14c-0.71-0.42-1.35-0.93-1.93-1.52
	c0.77-1.54,0.68-3.38-0.28-4.86c-0.59-0.91-1.44-1.58-2.44-1.94c0.01-0.82,0.13-1.63,0.35-2.43c1.73-0.11,3.27-1.11,4.06-2.67
	c0.49-0.96,0.65-2.04,0.46-3.09C145.26,119.15,146.03,118.85,146.83,118.65L146.83,118.65z"/>
<path class="st0" d="M143.31,134.23c0-0.44,0.35-0.8,0.8-0.8c0.44,0,0.8,0.36,0.8,0.8c0,0.44-0.36,0.8-0.8,0.8
	C143.67,135.02,143.31,134.67,143.31,134.23L143.31,134.23z"/>
<path class="st0" d="M151.72,136.08c-0.38-0.22-0.51-0.71-0.29-1.09c0.22-0.38,0.71-0.51,1.09-0.29c0.38,0.22,0.51,0.71,0.29,1.09
	C152.59,136.17,152.1,136.3,151.72,136.08L151.72,136.08z"/>
<path class="st0" d="M157.61,129.76c-0.38,0.22-0.87,0.09-1.09-0.29c-0.22-0.38-0.09-0.87,0.29-1.09c0.38-0.22,0.87-0.09,1.09,0.29
	C158.12,129.05,157.99,129.54,157.61,129.76L157.61,129.76z"/>
<path class="st0" d="M154.99,121.42c0,0.44-0.36,0.8-0.8,0.8c-0.44,0-0.8-0.36-0.8-0.8c0-0.44,0.36-0.8,0.8-0.8
	C154.64,120.62,154.99,120.98,154.99,121.42L154.99,121.42z"/>
<path class="st0" d="M146.58,119.66c0.38,0.22,0.51,0.71,0.29,1.09c-0.22,0.38-0.71,0.51-1.09,0.29c-0.38-0.22-0.51-0.71-0.29-1.09
	C145.71,119.57,146.2,119.44,146.58,119.66L146.58,119.66z"/>
<path class="st0" d="M140.78,125.88c0.38-0.22,0.87-0.09,1.09,0.29c0.22,0.38,0.09,0.87-0.29,1.09c-0.38,0.22-0.87,0.09-1.09-0.29
	C140.27,126.59,140.4,126.1,140.78,125.88L140.78,125.88z"/>
<polygon class="st0" points="184.68,230.49 157.54,131.58 158.42,131.33 185.57,230.24 184.68,230.49 "/>
<path class="st0" d="M185.13,231.28c-0.4,0-0.77-0.27-0.88-0.67l-1.66-6.06c-0.13-0.49,0.15-0.99,0.64-1.13
	c0.48-0.13,0.99,0.15,1.13,0.64l1.66,6.06c0.13,0.49-0.15,0.99-0.64,1.13C185.29,231.27,185.2,231.28,185.13,231.28L185.13,231.28z"
	/>
<polygon class="st0" points="102.74,225.69 101.89,225.36 139.6,128.27 140.45,128.6 102.74,225.69 "/>
<path class="st0" d="M102.32,226.44c-0.11,0-0.22-0.02-0.33-0.06c-0.47-0.18-0.71-0.71-0.53-1.18l2.26-5.86
	c0.18-0.47,0.72-0.71,1.18-0.53c0.47,0.18,0.71,0.71,0.53,1.18l-2.26,5.86C103.03,226.22,102.68,226.44,102.32,226.44L102.32,226.44
	z"/>
<polygon class="st0" points="255.81,148.44 156.61,122.51 156.84,121.62 256.04,147.56 255.81,148.44 "/>
<path class="st0" d="M255.93,148.92c-0.08,0-0.15-0.01-0.23-0.03l-6.08-1.59c-0.49-0.13-0.78-0.63-0.66-1.12
	c0.13-0.49,0.63-0.78,1.12-0.66l6.07,1.59c0.49,0.13,0.78,0.63,0.66,1.12C256.71,148.64,256.33,148.92,255.93,148.92L255.93,148.92z
	"/>
<polygon class="st0" points="209.98,217.58 144.83,136.48 145.55,135.91 210.69,217.01 209.98,217.58 "/>
<path class="st0" d="M210.33,218.21c-0.27,0-0.53-0.12-0.72-0.34l-3.95-4.88c-0.32-0.39-0.25-0.97,0.14-1.29
	c0.39-0.32,0.97-0.26,1.29,0.14l3.95,4.88c0.32,0.39,0.25,0.97-0.14,1.29C210.74,218.14,210.53,218.21,210.33,218.21L210.33,218.21z
	"/>
<polygon class="st0" points="148.18,118.85 147.52,118.21 219.67,45.18 220.32,45.82 148.18,118.85 "/>
<path class="st0" d="M215.58,50.89c-0.23,0-0.47-0.09-0.64-0.26c-0.36-0.36-0.36-0.94-0.01-1.3l4.41-4.47
	c0.36-0.36,0.94-0.36,1.3-0.01c0.36,0.36,0.36,0.94,0.01,1.3l-4.41,4.47C216.06,50.79,215.82,50.89,215.58,50.89L215.58,50.89z"/>
<polygon class="st0" points="154.12,136.01 153.98,135.1 257.14,119.18 257.28,120.09 154.12,136.01 "/>
<path class="st0" d="M251.01,121.53c-0.44,0-0.83-0.32-0.9-0.77c-0.08-0.5,0.26-0.97,0.76-1.05l6.2-0.98
	c0.5-0.08,0.97,0.26,1.05,0.76c0.08,0.5-0.26,0.97-0.76,1.05l-6.2,0.98C251.1,121.52,251.05,121.53,251.01,121.53L251.01,121.53z"/>
<polygon class="st0" points="140.01,124.55 112.82,25.49 113.71,25.25 140.89,124.3 140.01,124.55 "/>
<path class="st0" d="M114.93,32.34c-0.4,0-0.77-0.27-0.88-0.67l-1.66-6.06c-0.13-0.49,0.15-0.99,0.64-1.13
	c0.48-0.13,0.99,0.15,1.13,0.64l1.66,6.06c0.14,0.49-0.15,0.99-0.64,1.13C115.09,32.33,115.01,32.34,114.93,32.34L114.93,32.34z"/>
<polygon class="st0" points="158.79,127.46 157.94,127.13 195.65,30.04 196.5,30.37 158.79,127.46 "/>
<path class="st0" d="M193.82,36.98c-0.11,0-0.22-0.02-0.33-0.06c-0.47-0.18-0.71-0.71-0.52-1.18l2.25-5.86
	c0.19-0.47,0.72-0.71,1.19-0.53c0.47,0.18,0.71,0.71,0.53,1.18l-2.26,5.86C194.53,36.76,194.19,36.98,193.82,36.98L193.82,36.98z"/>
<polygon class="st0" points="141.47,134.09 42.35,108.18 42.58,107.29 141.7,133.21 141.47,134.09 "/>
<path class="st0" d="M48.54,110.24c-0.08,0-0.15-0.01-0.23-0.03l-6.08-1.59c-0.49-0.13-0.78-0.63-0.66-1.12
	c0.13-0.49,0.63-0.78,1.12-0.66l6.07,1.59c0.49,0.13,0.78,0.63,0.66,1.12C49.32,109.97,48.95,110.24,48.54,110.24L48.54,110.24z"/>
<polygon class="st0" points="152.92,119.92 87.7,38.73 88.42,38.15 153.64,119.35 152.92,119.92 "/>
<path class="st0" d="M92.01,44.24c-0.27,0-0.53-0.12-0.71-0.34l-3.95-4.88c-0.32-0.39-0.26-0.97,0.14-1.29
	c0.39-0.32,0.97-0.26,1.29,0.14l3.95,4.88c0.32,0.39,0.25,0.97-0.14,1.29C92.41,44.17,92.21,44.24,92.01,44.24L92.01,44.24z"/>
<polygon class="st0" points="78.72,210.55 78.07,209.91 150.14,136.95 150.8,137.6 78.72,210.55 "/>
<path class="st0" d="M78.4,211.15c-0.23,0-0.46-0.09-0.64-0.26c-0.36-0.36-0.36-0.94-0.01-1.3l4.41-4.47
	c0.36-0.36,0.93-0.36,1.3-0.01c0.36,0.36,0.36,0.94,0.01,1.3l-4.41,4.47C78.87,211.06,78.63,211.15,78.4,211.15L78.4,211.15z"/>
<polygon class="st0" points="41.25,136.55 41.11,135.65 144.27,119.72 144.41,120.63 41.25,136.55 "/>
<path class="st0" d="M41.18,137.02c-0.44,0-0.83-0.32-0.9-0.77c-0.08-0.5,0.26-0.97,0.76-1.05l6.2-0.98
	c0.51-0.08,0.97,0.26,1.05,0.76c0.08,0.5-0.26,0.97-0.76,1.05l-6.2,0.98C41.28,137.01,41.23,137.02,41.18,137.02L41.18,137.02z"/>
<polygon class="st0" points="126.68,234.15 125.8,233.9 153.88,136.85 154.76,137.11 126.68,234.15 "/>
<path class="st0" d="M126.24,234.94c-0.08,0-0.17-0.01-0.26-0.04c-0.49-0.14-0.76-0.65-0.62-1.14l1.75-6.03
	c0.14-0.49,0.65-0.76,1.13-0.62c0.49,0.14,0.77,0.65,0.62,1.14l-1.75,6.03C127.01,234.68,126.64,234.94,126.24,234.94L126.24,234.94
	z"/>
<polygon class="st0" points="58.46,186.98 57.9,186.25 139.2,124.41 139.76,125.14 58.46,186.98 "/>
<path class="st0" d="M58.18,187.53c-0.28,0-0.55-0.12-0.73-0.36c-0.31-0.4-0.23-0.98,0.17-1.29l4.99-3.82
	c0.41-0.31,0.98-0.23,1.29,0.17c0.31,0.4,0.23,0.98-0.17,1.28l-4.99,3.82C58.57,187.47,58.38,187.53,58.18,187.53L58.18,187.53z"/>
<polygon class="st0" points="210.36,181.23 159.29,128.28 159.95,127.65 211.02,180.59 210.75,181.64 "/>
<path class="st0" d="M229.66,201.74c-0.24,0-0.48-0.09-0.66-0.28l-4.35-4.53c-0.35-0.37-0.34-0.95,0.03-1.3
	c0.36-0.35,0.94-0.34,1.3,0.03l4.35,4.53c0.35,0.37,0.34,0.95-0.02,1.3C230.11,201.65,229.88,201.74,229.66,201.74L229.66,201.74z"
	/>
<polygon class="st0" points="154.11,236.12 141.23,134.99 142.14,134.88 155.02,236 154.11,236.12 "/>
<path class="st0" d="M154.56,236.98c-0.45,0-0.85-0.34-0.91-0.8l-0.81-6.23c-0.06-0.5,0.29-0.96,0.79-1.03
	c0.51-0.07,0.96,0.29,1.03,0.79l0.81,6.23c0.07,0.5-0.29,0.96-0.79,1.03C154.64,236.98,154.6,236.98,154.56,236.98L154.56,236.98z"
	/>
<polygon class="st0" points="154.5,119.29 154.29,118.4 252.5,94.22 252.72,95.11 154.5,119.29 "/>
<path class="st0" d="M246.51,97.08c-0.41,0-0.79-0.28-0.89-0.7c-0.12-0.49,0.18-0.99,0.67-1.11l6.1-1.5
	c0.49-0.12,0.99,0.18,1.11,0.67c0.12,0.49-0.18,0.99-0.67,1.11l-6.1,1.5C246.66,97.07,246.58,97.08,246.51,97.08L246.51,97.08z"/>
<polygon class="st0" points="245.4,177.74 151.4,138.33 151.75,137.48 245.76,176.89 245.4,177.74 "/>
<path class="st0" d="M245.58,178.23c-0.12,0-0.24-0.02-0.35-0.07l-5.8-2.41c-0.47-0.19-0.69-0.73-0.49-1.2
	c0.19-0.47,0.73-0.69,1.2-0.49l5.8,2.41c0.47,0.19,0.69,0.73,0.49,1.2C246.28,178.02,245.94,178.23,245.58,178.23L245.58,178.23z"/>
<polygon class="st0" points="144.36,119.16 143.48,118.91 171.71,21.58 172.59,21.83 144.36,119.16 "/>
<path class="st0" d="M170.4,28.66c-0.08,0-0.17-0.01-0.25-0.04c-0.49-0.14-0.76-0.65-0.62-1.14l1.75-6.03
	c0.14-0.49,0.65-0.77,1.13-0.63c0.49,0.14,0.76,0.65,0.62,1.14l-1.75,6.03C171.16,28.39,170.8,28.66,170.4,28.66L170.4,28.66z"/>
<polygon class="st0" points="159.53,131.06 158.97,130.33 239.93,68.75 240.49,69.48 159.53,131.06 "/>
<path class="st0" d="M235.23,73.85c-0.28,0-0.55-0.12-0.73-0.36c-0.31-0.4-0.23-0.98,0.17-1.28l4.99-3.82
	c0.4-0.31,0.98-0.23,1.29,0.17c0.31,0.4,0.23,0.98-0.17,1.28l-4.99,3.82C235.61,73.79,235.42,73.85,235.23,73.85L235.23,73.85z"/>
<polygon class="st0" points="138.44,128.09 68.4,55.23 69.07,54.59 139.1,127.46 138.44,128.09 "/>
<path class="st0" d="M73.08,60.36c-0.24,0-0.48-0.09-0.66-0.28l-4.35-4.53c-0.35-0.37-0.34-0.95,0.03-1.3
	c0.36-0.35,0.94-0.34,1.3,0.03l4.35,4.53c0.35,0.37,0.34,0.95-0.02,1.3C73.54,60.27,73.31,60.36,73.08,60.36L73.08,60.36z"/>
<polygon class="st0" points="156.26,120.93 143.37,19.73 144.28,19.61 157.17,120.81 156.26,120.93 "/>
<path class="st0" d="M144.64,26.81c-0.45,0-0.85-0.34-0.91-0.8l-0.81-6.23c-0.06-0.5,0.29-0.96,0.79-1.03
	c0.51-0.06,0.96,0.29,1.03,0.79l0.81,6.23c0.07,0.5-0.29,0.96-0.79,1.03C144.72,26.81,144.68,26.81,144.64,26.81L144.64,26.81z"/>
<polygon class="st0" points="45.89,161.51 45.67,160.62 143.8,136.45 144.02,137.34 45.89,161.51 "/>
<path class="st0" d="M45.78,161.98c-0.41,0-0.79-0.28-0.89-0.7c-0.12-0.49,0.18-0.99,0.67-1.11l6.1-1.5
	c0.49-0.12,0.99,0.18,1.11,0.67c0.12,0.49-0.18,0.99-0.67,1.11l-6.1,1.5C45.93,161.98,45.85,161.98,45.78,161.98L45.78,161.98z"/>
<polygon class="st0" points="146.71,118.28 52.63,78.84 52.99,78 147.07,117.43 146.71,118.28 "/>
<path class="st0" d="M58.61,81.75c-0.12,0-0.24-0.02-0.35-0.07l-5.8-2.41c-0.47-0.19-0.69-0.73-0.49-1.2
	c0.19-0.47,0.73-0.69,1.2-0.49l5.8,2.41c0.47,0.19,0.69,0.73,0.49,1.2C59.31,81.53,58.97,81.75,58.61,81.75L58.61,81.75z"/>
<path class="st0" d="M149.2,14.21c-62.77,0-113.65,50.88-113.65,113.65S86.43,241.52,149.2,241.52
	c62.77,0,113.65-50.88,113.65-113.65S211.96,14.21,149.2,14.21L149.2,14.21z M149.2,20.63c28.64,0,55.57,11.15,75.83,31.41
	c20.25,20.25,31.41,47.18,31.41,75.83c0,28.64-11.16,55.57-31.41,75.83c-20.25,20.25-47.18,31.41-75.83,31.41
	c-28.64,0-55.57-11.15-75.83-31.41c-20.25-20.25-31.41-47.18-31.41-75.83c0-28.64,11.15-55.57,31.41-75.83
	C93.62,31.79,120.55,20.63,149.2,20.63L149.2,20.63z"/>
<path class="st0" d="M147.99,224.64h1.57c0.26,0,0.47,0.21,0.47,0.47v10.48c0,0.26-0.21,0.47-0.47,0.47h-1.57
	c-0.26,0-0.47-0.21-0.47-0.47v-10.48C147.51,224.85,147.73,224.64,147.99,224.64L147.99,224.64z"/>
<path class="st0" d="M148.78,222.38L148.78,222.38c0.51,0,0.93,0.41,0.93,0.93v2.67h-1.85v-2.67
	C147.85,222.8,148.26,222.38,148.78,222.38L148.78,222.38z"/>
<path class="st1" d="M273.9,185.36c0,0-3.41,4.26-18.46,4.54c-15.05,0.28-13.63-8.8-13.63-8.8s-2.56,1.14-10.22,4.54
	c-7.67,3.41-11.93,2.84-11.93,2.84s-9.66,1.7-10.22-7.1c-0.57-8.8,10.22-6.53,10.22-6.53s-3.69-8.24-33.8,2.27
	c-30.11,10.51-49.13,4.54-49.13,4.54s-21.97-3.96-21.12-23.79c0.85-19.83,10.65-22.34,20.34-22.93c12.9-0.8,21.79,6.68,21.79,6.68
	s9.09-28.12-27.83-27.83c-36.92,0.28-59.07,30.96-59.07,30.96s-37.21,45.73-45.44,51.3c-8.24,5.58-15.9,0-15.9,0v47.99h274.98
	v-40.62L273.9,185.36z"/>
<path class="st2" d="M275.15,184.86c0,0-3.41,4.26-18.46,4.54c-15.05,0.28-13.63-8.8-13.63-8.8s-2.56,1.14-10.22,4.54
	s-11.93,2.84-11.93,2.84s-9.66,1.7-10.22-7.1s10.22-6.53,10.22-6.53s-3.69-8.24-33.8,2.27c-30.11,10.51-49.13,4.54-49.13,4.54
	s-21.97-3.96-21.12-23.79s10.65-22.34,20.34-22.93c12.9-0.8,21.79,6.68,21.79,6.68s9.09-28.12-27.83-27.83s-59.07,30.96-59.07,30.96
	s-31.3,37.16-39.54,42.73s-15.9,0-15.9,0"/>
<rect x="132.94" y="65.2" class="st3" width="775.06" height="173.26"/>
<text transform="matrix(1 0 0 1 295.8062 104.814)" class="st0 st4 st5 st6">INVERLOCH</text>
<rect x="131.94" y="135.19" class="st3" width="775.06" height="173.26"/>
<text transform="matrix(1 0 0 1 396.0464 160.6494)" class="st0 st4 st7 st8">BIKE HIRE</text>
<line class="st9" x1="300" y1="148.3" x2="385.54" y2="148.3"/>
<line class="st9" x1="657.91" y1="148.3" x2="740.75" y2="148.3"/>
</svg>
