<?xml version="1.0" encoding="utf-8"?>
<!-- Generator: Adobe Illustrator 24.1.2, SVG Export Plug-In . SVG Version: 6.00 Build 0)  -->
<svg version="1.1" id="Layer_1" xmlns="http://www.w3.org/2000/svg" xmlns:xlink="http://www.w3.org/1999/xlink" x="0px" y="0px"
	 viewBox="0 0 901.45 238.36" style="enable-background:new 0 0 901.45 238.36;" xml:space="preserve">
<style type="text/css">
	.st0{fill:#231F20;}
	.st1{fill:#FFFFFF;}
	.st2{fill:none;stroke:#231F20;stroke-width:2;stroke-miterlimit:10;}
	.st3{fill:#231F20;stroke:#231F20;stroke-width:0.5;stroke-miterlimit:10;}
</style>
<path class="st0" d="M172.52,144.78c1.14,0,2.06,0.92,2.06,2.06c0,1.14-0.92,2.06-2.06,2.06c-1.13,0-2.05-0.92-2.05-2.06
	C170.46,145.7,171.39,144.78,172.52,144.78L172.52,144.78z M172.52,154.31c4.13,0,7.47-3.35,7.47-7.47c0-4.13-3.35-7.47-7.47-7.47
	c-4.13,0-7.47,3.35-7.47,7.47C165.05,150.97,168.39,154.31,172.52,154.31L172.52,154.31z"/>
<path class="st0" d="M172.52,150.18c-1.15,0-2.28-0.6-2.9-1.67c-0.92-1.6-0.38-3.64,1.23-4.56c0.52-0.3,1.1-0.45,1.66-0.45
	c1.15,0,2.28,0.6,2.9,1.67c0.92,1.6,0.38,3.64-1.22,4.56C173.66,150.04,173.09,150.18,172.52,150.18L172.52,150.18z M170.28,134.92
	c-1.31,0.25-2.61,0.7-3.83,1.41c-0.18,0.11-0.35,0.23-0.52,0.34c0.38,1.15,0.32,2.44-0.27,3.61c-0.83,1.63-2.48,2.56-4.19,2.56
	c-0.13,0-0.26-0.01-0.39-0.02c-0.52,1.48-0.75,3.06-0.67,4.64c1.19,0.24,2.28,0.94,3,2.04c1.07,1.65,0.97,3.72-0.08,5.24
	c1.04,1.22,2.3,2.2,3.69,2.9c0.81-0.91,1.96-1.51,3.26-1.57c0.08,0,0.17-0.01,0.25-0.01c1.86,0,3.49,1.09,4.25,2.7
	c1.31-0.25,2.61-0.7,3.83-1.41c0.18-0.11,0.35-0.23,0.52-0.34c-0.38-1.15-0.32-2.44,0.27-3.61c0.83-1.63,2.48-2.56,4.19-2.56
	c0.13,0,0.26,0.01,0.39,0.02c0.52-1.48,0.75-3.06,0.67-4.64c-1.19-0.24-2.28-0.94-3-2.04c-1.07-1.65-0.97-3.72,0.09-5.24
	c-1.05-1.22-2.31-2.2-3.69-2.9c-0.8,0.91-1.96,1.51-3.26,1.57c-0.09,0-0.17,0.01-0.25,0.01
	C172.66,137.61,171.03,136.52,170.28,134.92L170.28,134.92z M172.52,151.21c0.76,0,1.52-0.2,2.18-0.59
	c1.01-0.58,1.73-1.53,2.04-2.65c0.3-1.13,0.15-2.3-0.44-3.31c-0.78-1.35-2.23-2.18-3.79-2.18c-0.76,0-1.52,0.2-2.18,0.59
	c-2.09,1.2-2.8,3.88-1.6,5.97C169.52,150.37,170.96,151.21,172.52,151.21L172.52,151.21z M169.76,136.08
	c1.05,1.58,2.84,2.56,4.76,2.56c0.1,0,0.2,0,0.3-0.01c1.26-0.07,2.43-0.53,3.38-1.33c0.83,0.49,1.58,1.08,2.25,1.77
	c-0.9,1.8-0.8,3.95,0.32,5.67c0.69,1.06,1.68,1.84,2.84,2.26c-0.01,0.96-0.15,1.91-0.41,2.83c-2.02,0.13-3.82,1.29-4.74,3.11
	c-0.57,1.13-0.75,2.38-0.53,3.6c-0.83,0.46-1.72,0.81-2.66,1.05c-1.05-1.58-2.84-2.56-4.76-2.56c-0.1,0-0.2,0-0.3,0.01
	c-1.26,0.07-2.43,0.53-3.38,1.33c-0.83-0.49-1.58-1.08-2.25-1.77c0.9-1.8,0.8-3.95-0.32-5.67c-0.69-1.06-1.68-1.84-2.84-2.26
	c0.01-0.96,0.15-1.91,0.41-2.83c2.02-0.13,3.82-1.29,4.74-3.11c0.57-1.13,0.76-2.38,0.53-3.6
	C167.93,136.67,168.82,136.32,169.76,136.08L169.76,136.08z"/>
<path class="st0" d="M165.65,154.26c0-0.51,0.41-0.93,0.93-0.93c0.51,0,0.93,0.42,0.93,0.93c0,0.51-0.42,0.93-0.93,0.93
	C166.07,155.19,165.65,154.78,165.65,154.26L165.65,154.26z"/>
<path class="st0" d="M175.47,156.42c-0.45-0.26-0.6-0.83-0.34-1.27c0.25-0.45,0.83-0.6,1.27-0.34c0.45,0.26,0.6,0.83,0.34,1.27
	C176.48,156.52,175.91,156.68,175.47,156.42L175.47,156.42z"/>
<path class="st0" d="M182.34,149.05c-0.45,0.26-1.02,0.1-1.27-0.34c-0.25-0.45-0.1-1.02,0.34-1.27c0.44-0.26,1.01-0.1,1.27,0.34
	C182.93,148.22,182.78,148.79,182.34,149.05L182.34,149.05z"/>
<path class="st0" d="M179.28,139.31c0,0.51-0.42,0.93-0.93,0.93c-0.52,0-0.93-0.42-0.93-0.93c0-0.51,0.42-0.93,0.93-0.93
	C178.87,138.38,179.28,138.8,179.28,139.31L179.28,139.31z"/>
<path class="st0" d="M169.47,137.26c0.45,0.26,0.6,0.83,0.34,1.27c-0.25,0.45-0.82,0.6-1.27,0.34c-0.45-0.26-0.6-0.83-0.34-1.27
	C168.45,137.15,169.02,137,169.47,137.26L169.47,137.26z"/>
<path class="st0" d="M162.7,144.53c0.45-0.26,1.01-0.1,1.27,0.34c0.26,0.45,0.11,1.02-0.34,1.27c-0.45,0.26-1.02,0.1-1.27-0.34
	C162.1,145.35,162.26,144.78,162.7,144.53L162.7,144.53z"/>
<polygon class="st0" points="213.93,266.59 182.25,151.17 183.29,150.88 214.96,266.31 213.93,266.59 "/>
<path class="st0" d="M214.45,267.52c-0.47,0-0.9-0.31-1.03-0.79l-1.94-7.07c-0.16-0.57,0.18-1.16,0.75-1.32
	c0.56-0.16,1.16,0.18,1.31,0.75l1.94,7.07c0.16,0.57-0.18,1.16-0.75,1.31C214.63,267.51,214.54,267.52,214.45,267.52L214.45,267.52z
	"/>
<polygon class="st0" points="118.31,261 117.31,260.61 161.32,147.31 162.32,147.7 118.31,261 "/>
<path class="st0" d="M117.81,261.87c-0.13,0-0.26-0.02-0.38-0.07c-0.55-0.21-0.83-0.83-0.62-1.38l2.63-6.84
	c0.21-0.55,0.84-0.83,1.38-0.61c0.55,0.21,0.83,0.83,0.62,1.38l-2.63,6.84C118.65,261.61,118.24,261.87,117.81,261.87L117.81,261.87
	z"/>
<polygon class="st0" points="296.93,170.85 181.17,140.58 181.44,139.55 297.2,169.82 296.93,170.85 "/>
<path class="st0" d="M297.07,171.4c-0.09,0-0.18-0.01-0.27-0.03l-7.09-1.85c-0.57-0.15-0.91-0.73-0.76-1.3
	c0.15-0.57,0.74-0.91,1.31-0.76l7.09,1.85c0.57,0.15,0.91,0.73,0.76,1.31C297.98,171.08,297.54,171.4,297.07,171.4L297.07,171.4z"/>
<polygon class="st0" points="243.45,251.53 167.43,156.9 168.26,156.23 244.28,250.86 243.45,251.53 "/>
<path class="st0" d="M243.86,252.27c-0.31,0-0.62-0.14-0.84-0.4l-4.61-5.7c-0.37-0.46-0.3-1.13,0.16-1.5
	c0.46-0.37,1.13-0.3,1.5,0.16l4.61,5.7c0.37,0.46,0.3,1.13-0.16,1.5C244.34,252.19,244.1,252.27,243.86,252.27L243.86,252.27z"/>
<polygon class="st0" points="171.33,136.32 170.57,135.57 254.76,50.35 255.52,51.1 171.33,136.32 "/>
<path class="st0" d="M249.99,57.01c-0.27,0-0.55-0.1-0.75-0.31c-0.42-0.42-0.42-1.09-0.01-1.51l5.15-5.21
	c0.42-0.42,1.09-0.43,1.52-0.01c0.42,0.42,0.42,1.09,0.01,1.51l-5.15,5.21C250.54,56.9,250.27,57.01,249.99,57.01L249.99,57.01z"/>
<polygon class="st0" points="178.27,156.34 178.11,155.28 298.49,136.7 298.65,137.76 178.27,156.34 "/>
<path class="st0" d="M291.33,139.44c-0.52,0-0.97-0.38-1.06-0.9c-0.09-0.58,0.3-1.13,0.89-1.22l7.24-1.14
	c0.58-0.09,1.13,0.31,1.22,0.89c0.09,0.58-0.31,1.13-0.89,1.22l-7.24,1.14C291.44,139.44,291.38,139.44,291.33,139.44L291.33,139.44
	z"/>
<polygon class="st0" points="161.8,142.97 130.08,27.37 131.11,27.09 162.83,142.68 161.8,142.97 "/>
<path class="st0" d="M132.53,35.37c-0.47,0-0.9-0.31-1.03-0.79l-1.94-7.07c-0.16-0.57,0.18-1.16,0.75-1.31
	c0.56-0.15,1.15,0.18,1.31,0.75l1.94,7.07c0.16,0.57-0.18,1.16-0.75,1.31C132.72,35.36,132.62,35.37,132.53,35.37L132.53,35.37z"/>
<polygon class="st0" points="183.72,146.37 182.72,145.98 226.72,32.68 227.72,33.07 183.72,146.37 "/>
<path class="st0" d="M224.59,40.78c-0.13,0-0.26-0.02-0.39-0.07c-0.55-0.21-0.82-0.83-0.61-1.38l2.63-6.84
	c0.22-0.55,0.84-0.82,1.38-0.61c0.55,0.21,0.83,0.83,0.61,1.38l-2.63,6.84C225.42,40.52,225.02,40.78,224.59,40.78L224.59,40.78z"/>
<polygon class="st0" points="163.5,154.11 47.84,123.86 48.11,122.83 163.77,153.07 163.5,154.11 "/>
<path class="st0" d="M55.06,126.27c-0.09,0-0.18-0.01-0.27-0.04l-7.09-1.85c-0.57-0.15-0.91-0.73-0.76-1.31
	c0.15-0.57,0.74-0.91,1.31-0.76l7.09,1.85c0.57,0.15,0.91,0.73,0.76,1.31C55.97,125.95,55.54,126.27,55.06,126.27L55.06,126.27z"/>
<polygon class="st0" points="176.87,137.57 100.76,42.82 101.59,42.15 177.7,136.9 176.87,137.57 "/>
<path class="st0" d="M105.78,49.25c-0.31,0-0.62-0.14-0.83-0.4l-4.61-5.7c-0.37-0.46-0.3-1.13,0.16-1.5c0.46-0.37,1.13-0.3,1.5,0.16
	l4.61,5.7c0.37,0.46,0.3,1.13-0.16,1.5C106.26,49.17,106.02,49.25,105.78,49.25L105.78,49.25z"/>
<polygon class="st0" points="90.28,243.33 89.52,242.58 173.63,157.44 174.39,158.19 90.28,243.33 "/>
<path class="st0" d="M89.9,244.02c-0.27,0-0.54-0.1-0.75-0.31c-0.42-0.42-0.42-1.09-0.01-1.51l5.15-5.21
	c0.41-0.42,1.09-0.42,1.51-0.01c0.42,0.41,0.42,1.09,0.01,1.51l-5.15,5.21C90.45,243.92,90.18,244.02,89.9,244.02L89.9,244.02z"/>
<polygon class="st0" points="46.55,156.97 46.39,155.92 166.77,137.34 166.93,138.39 46.55,156.97 "/>
<path class="st0" d="M46.47,157.52c-0.52,0-0.97-0.38-1.06-0.9c-0.09-0.58,0.31-1.13,0.89-1.22l7.24-1.14
	c0.59-0.1,1.13,0.31,1.22,0.89c0.09,0.58-0.31,1.13-0.89,1.22l-7.24,1.14C46.58,157.51,46.53,157.52,46.47,157.52L46.47,157.52z"/>
<polygon class="st0" points="146.25,270.87 145.22,270.57 177.98,157.33 179.01,157.63 146.25,270.87 "/>
<path class="st0" d="M145.74,271.79c-0.1,0-0.2-0.01-0.3-0.04c-0.57-0.16-0.89-0.76-0.73-1.32l2.04-7.04
	c0.16-0.57,0.76-0.89,1.32-0.73c0.57,0.16,0.9,0.76,0.73,1.32l-2.04,7.04C146.63,271.49,146.2,271.79,145.74,271.79L145.74,271.79z"
	/>
<polygon class="st0" points="66.63,215.82 65.99,214.97 160.86,142.81 161.51,143.66 66.63,215.82 "/>
<path class="st0" d="M66.31,216.46c-0.32,0-0.64-0.14-0.85-0.42c-0.36-0.47-0.27-1.14,0.2-1.5l5.82-4.45
	c0.47-0.36,1.14-0.27,1.5,0.2c0.36,0.47,0.27,1.14-0.2,1.5l-5.82,4.45C66.76,216.39,66.54,216.46,66.31,216.46L66.31,216.46z"/>
<polygon class="st0" points="243.89,209.11 184.3,147.33 185.07,146.58 244.66,208.37 244.35,209.59 "/>
<path class="st0" d="M266.41,233.05c-0.28,0-0.56-0.11-0.77-0.33l-5.07-5.29c-0.41-0.43-0.4-1.1,0.03-1.51
	c0.42-0.41,1.1-0.39,1.51,0.03l5.07,5.29c0.41,0.43,0.4,1.1-0.03,1.51C266.95,232.95,266.68,233.05,266.41,233.05L266.41,233.05z"/>
<polygon class="st0" points="178.25,273.16 163.23,155.16 164.29,155.02 179.31,273.03 178.25,273.16 "/>
<path class="st0" d="M178.78,274.17c-0.53,0-0.99-0.39-1.06-0.93l-0.95-7.27c-0.07-0.59,0.34-1.12,0.92-1.2
	c0.59-0.08,1.12,0.34,1.2,0.92l0.95,7.27c0.08,0.59-0.34,1.12-0.92,1.2C178.87,274.16,178.83,274.17,178.78,274.17L178.78,274.17z"
	/>
<polygon class="st0" points="178.71,136.83 178.46,135.79 293.07,107.57 293.32,108.61 178.71,136.83 "/>
<path class="st0" d="M286.08,110.91c-0.48,0-0.92-0.33-1.04-0.81c-0.14-0.57,0.21-1.15,0.78-1.29l7.11-1.75
	c0.57-0.14,1.15,0.21,1.3,0.78c0.14,0.57-0.21,1.15-0.78,1.29l-7.12,1.75C286.25,110.91,286.16,110.91,286.08,110.91L286.08,110.91z
	"/>
<polygon class="st0" points="284.79,205.04 175.09,159.05 175.5,158.06 285.2,204.05 284.79,205.04 "/>
<path class="st0" d="M285,205.61c-0.14,0-0.28-0.03-0.41-0.08l-6.77-2.81c-0.55-0.23-0.8-0.85-0.58-1.4
	c0.23-0.55,0.85-0.81,1.4-0.58l6.77,2.81c0.55,0.23,0.8,0.85,0.58,1.4C285.81,205.36,285.41,205.61,285,205.61L285,205.61z"/>
<polygon class="st0" points="166.88,136.68 165.85,136.39 198.79,22.81 199.82,23.11 166.88,136.68 "/>
<path class="st0" d="M197.26,31.07c-0.1,0-0.2-0.01-0.3-0.04c-0.57-0.16-0.89-0.76-0.73-1.33l2.04-7.04
	c0.16-0.57,0.75-0.9,1.32-0.73c0.57,0.16,0.89,0.76,0.73,1.33l-2.04,7.04C198.15,30.76,197.72,31.07,197.26,31.07L197.26,31.07z"/>
<polygon class="st0" points="184.58,150.57 183.93,149.72 278.4,77.86 279.05,78.71 184.58,150.57 "/>
<path class="st0" d="M272.91,83.81c-0.32,0-0.64-0.14-0.85-0.42c-0.36-0.47-0.27-1.14,0.2-1.5l5.82-4.45
	c0.47-0.36,1.14-0.27,1.5,0.2c0.36,0.47,0.27,1.14-0.2,1.5l-5.82,4.45C273.36,83.74,273.14,83.81,272.91,83.81L272.91,83.81z"/>
<polygon class="st0" points="159.97,147.1 78.24,62.07 79.01,61.33 160.74,146.36 159.97,147.1 "/>
<path class="st0" d="M83.7,68.06c-0.28,0-0.56-0.11-0.77-0.33l-5.07-5.29c-0.41-0.43-0.4-1.1,0.03-1.51
	c0.42-0.41,1.1-0.39,1.51,0.03l5.07,5.29c0.41,0.43,0.4,1.1-0.03,1.51C84.23,67.96,83.97,68.06,83.7,68.06L83.7,68.06z"/>
<polygon class="st0" points="180.76,138.75 165.72,20.65 166.79,20.51 181.82,138.61 180.76,138.75 "/>
<path class="st0" d="M167.2,28.92c-0.53,0-0.99-0.39-1.06-0.93l-0.95-7.27c-0.07-0.59,0.34-1.12,0.92-1.2
	c0.59-0.08,1.12,0.34,1.2,0.92l0.95,7.27c0.08,0.59-0.34,1.12-0.92,1.2C167.29,28.92,167.25,28.92,167.2,28.92L167.2,28.92z"/>
<polygon class="st0" points="51.97,186.1 51.72,185.06 166.22,156.85 166.48,157.89 51.97,186.1 "/>
<path class="st0" d="M51.84,186.65c-0.48,0-0.92-0.33-1.04-0.81c-0.14-0.57,0.21-1.15,0.79-1.29l7.11-1.75
	c0.58-0.14,1.15,0.21,1.3,0.78c0.14,0.57-0.21,1.15-0.79,1.29l-7.11,1.75C52.01,186.64,51.92,186.65,51.84,186.65L51.84,186.65z"/>
<polygon class="st0" points="169.62,135.65 59.83,89.63 60.25,88.64 170.03,134.66 169.62,135.65 "/>
<path class="st0" d="M66.81,93.02c-0.13,0-0.28-0.03-0.41-0.08l-6.77-2.81c-0.55-0.23-0.8-0.85-0.58-1.4
	c0.23-0.55,0.85-0.8,1.4-0.58l6.77,2.81c0.55,0.23,0.8,0.85,0.58,1.4C67.63,92.77,67.23,93.02,66.81,93.02L66.81,93.02z"/>
<path class="st0" d="M172.52,14.21c-73.25,0-132.62,59.38-132.62,132.62s59.38,132.62,132.62,132.62
	c73.25,0,132.62-59.38,132.62-132.62S245.76,14.21,172.52,14.21L172.52,14.21z M172.52,21.7c33.42,0,64.85,13.02,88.49,36.65
	c23.63,23.64,36.65,55.06,36.65,88.49c0,33.43-13.02,64.85-36.65,88.49c-23.63,23.64-55.06,36.65-88.49,36.65
	c-33.42,0-64.85-13.02-88.49-36.65c-23.63-23.64-36.65-55.06-36.65-88.49c0-33.43,13.02-64.85,36.65-88.49
	C107.67,34.72,139.09,21.7,172.52,21.7L172.52,21.7z"/>
<path class="st0" d="M171.11,259.77h1.84c0.3,0,0.55,0.25,0.55,0.55v12.23c0,0.3-0.25,0.55-0.55,0.55h-1.84
	c-0.3,0-0.55-0.25-0.55-0.55v-12.23C170.56,260.01,170.8,259.77,171.11,259.77L171.11,259.77z"/>
<path class="st0" d="M172.03,257.14L172.03,257.14c0.59,0,1.08,0.48,1.08,1.08v3.11h-2.16v-3.11
	C170.95,257.62,171.43,257.14,172.03,257.14L172.03,257.14z"/>
<path class="st1" d="M318.05,213.93c0,0-3.98,4.97-21.54,5.3c-17.57,0.33-15.91-10.27-15.91-10.27s-2.98,1.33-11.93,5.3
	c-8.95,3.98-13.92,3.31-13.92,3.31s-11.27,1.99-11.93-8.29c-0.66-10.27,11.93-7.62,11.93-7.62s-4.31-9.61-39.44,2.65
	c-35.13,12.26-57.34,5.3-57.34,5.3s-25.64-4.62-24.64-27.76c0.99-23.14,12.43-26.06,23.74-26.76c15.05-0.93,25.43,7.79,25.43,7.79
	s10.61-32.81-32.48-32.48c-43.09,0.33-68.94,36.13-68.94,36.13s-43.42,53.36-53.03,59.87c-9.61,6.51-18.56,0-18.56,0v56h320.89
	v-47.41L318.05,213.93z"/>
<path class="st2" d="M319.5,213.35c0,0-3.98,4.97-21.54,5.3c-17.57,0.33-15.91-10.27-15.91-10.27s-2.98,1.33-11.93,5.3
	c-8.95,3.98-13.92,3.31-13.92,3.31s-11.27,1.99-11.93-8.29c-0.66-10.27,11.93-7.62,11.93-7.62s-4.31-9.61-39.44,2.65
	s-57.34,5.3-57.34,5.3s-25.64-4.62-24.64-27.76c0.99-23.14,12.43-26.06,23.74-26.76c15.05-0.93,25.43,7.79,25.43,7.79
	s10.61-32.81-32.48-32.48c-43.09,0.33-68.94,36.13-68.94,36.13S46,209.31,36.39,215.82c-9.61,6.51-18.56,0-18.56,0"/>
<g>
	<path class="st0" d="M348.59,74.59h6.12v45.35h-6.12V74.59z"/>
	<path class="st0" d="M386.19,72.77l33.53,34.47V74.59h6.19v47.45l-33.53-34.32v32.22h-6.19V72.77z"/>
	<path class="st0" d="M453.28,74.66h6.54l14.24,32.12l14.35-32.12H495l-21.02,46.81L453.28,74.66z"/>
	<path class="st0" d="M522.46,74.59h25.13v6.19h-19.01V92.1h19.01v6.12h-19.01v15.59h19.01v6.12h-25.13V74.59z"/>
	<path class="st0" d="M577.72,74.59h9.83c4.89,0,8.87,1.22,11.94,3.65c3.07,2.43,4.61,5.55,4.61,9.34c0,3.04-0.99,5.72-2.98,8.04
		c-1.99,2.33-5.09,3.96-9.3,4.91l13.17,19.41h-7.11l-12.58-18.65h-1.39v18.65h-6.19V74.59z M583.92,80.07v15.81
		c9.14,0.19,13.71-2.46,13.71-7.94c0-1.92-0.53-3.49-1.6-4.72c-1.07-1.22-2.49-2.05-4.27-2.49
		C589.97,80.29,587.36,80.07,583.92,80.07z"/>
	<path class="st0" d="M635.98,74.59h6.12v39.23h14.77v6.12h-20.9V74.59z"/>
	<path class="st0" d="M682.41,96.99c0-6.54,2.47-12.15,7.4-16.83s10.87-7.01,17.8-7.01c6.76,0,12.59,2.35,17.48,7.06
		c4.89,4.71,7.33,10.3,7.33,16.77c0,6.85-2.42,12.65-7.25,17.38c-4.83,4.73-10.76,7.1-17.78,7.1c-6.93,0-12.83-2.38-17.69-7.15
		C684.84,109.55,682.41,103.78,682.41,96.99z M725.84,97.28c0-5-1.8-9.22-5.41-12.64c-3.61-3.43-8.04-5.14-13.31-5.14
		c-5.01,0-9.3,1.74-12.87,5.23c-3.57,3.49-5.36,7.67-5.36,12.55c0,4.96,1.83,9.15,5.5,12.57c3.67,3.43,8.16,5.14,13.47,5.14
		c4.89,0,9.11-1.75,12.66-5.25S725.84,102.09,725.84,97.28z"/>
	<path class="st0" d="M799.05,76.15v7.01c-4.89-2.4-9.39-3.6-13.49-3.6c-5.27,0-9.71,1.7-13.31,5.1c-3.61,3.4-5.41,7.58-5.41,12.54
		c0,5.05,1.84,9.26,5.54,12.64c3.69,3.38,8.31,5.07,13.87,5.07c4.03,0,8.31-1.27,12.82-3.81v7.08c-4.11,2.18-8.56,3.27-13.35,3.27
		c-7.03,0-13.03-2.38-18.01-7.13c-4.98-4.75-7.48-10.49-7.48-17.2c0-6.59,2.45-12.24,7.35-16.93s10.8-7.04,17.71-7.04
		C789.71,73.16,794.3,74.16,799.05,76.15z"/>
	<path class="st0" d="M828.5,74.59h6.19v17.44h21.68V74.59h6.12v45.35h-6.12V98.15H834.7v21.79h-6.19V74.59z"/>
</g>
<g>
	<path class="st0" d="M464.19,155.94h4.62c3.04,0,5.52,0.66,7.44,1.98c1.92,1.32,2.88,2.98,2.88,5c0,2.45-1.42,4.5-4.26,6.15
		c4.39,1.47,6.59,4.01,6.59,7.63c0,2.52-1.13,4.55-3.4,6.09s-5.3,2.31-9.1,2.31h-4.78V155.94z M468.13,159.46v8.63
		c2.2-0.03,3.88-0.45,5.05-1.26s1.75-1.92,1.75-3.34c0-1.24-0.53-2.22-1.58-2.96s-2.46-1.11-4.23-1.11
		C468.73,159.42,468.41,159.43,468.13,159.46z M468.13,171.55v9.98h0.32c3.43,0,5.77-0.55,7.03-1.65s1.88-2.22,1.88-3.36
		c0-1.51-0.7-2.71-2.11-3.62s-3.33-1.35-5.77-1.35H468.13z"/>
	<path class="st0" d="M501.05,155.94h3.94v29.16h-3.94V155.94z"/>
	<path class="st0" d="M525.45,155.94h3.98v11.84l12.37-11.84h5.55l-14.09,13.53l14.18,15.63h-5.07l-12.94-14.22v14.22h-3.98V155.94z
		"/>
	<path class="st0" d="M565.05,155.94h16.16v3.98h-12.22v7.28h12.22v3.94h-12.22v10.02h12.22v3.94h-16.16V155.94z"/>
	<path class="st0" d="M627.09,155.94h3.98v11.21h13.94v-11.21h3.94v29.16h-3.94v-14.01h-13.94v14.01h-3.98V155.94z"/>
	<path class="st0" d="M669.25,155.94h3.94v29.16h-3.94V155.94z"/>
	<path class="st0" d="M694.27,155.94h6.32c3.14,0,5.7,0.78,7.68,2.34s2.96,3.57,2.96,6.01c0,1.95-0.64,3.68-1.92,5.17
		c-1.28,1.49-3.27,2.55-5.98,3.16l8.47,12.48h-4.57l-8.09-11.99h-0.89v11.99h-3.98V155.94z M698.26,159.46v10.16
		c5.87,0.12,8.81-1.58,8.81-5.1c0-1.24-0.34-2.25-1.03-3.03s-1.6-1.32-2.75-1.6C702.15,159.61,700.47,159.46,698.26,159.46z"/>
	<path class="st0" d="M730.83,155.94h16.16v3.98h-12.22v7.28h12.22v3.94h-12.22v10.02h12.22v3.94h-16.16V155.94z"/>
</g>
<line class="st3" x1="348.5" y1="170.68" x2="448.32" y2="170.68"/>
<line class="st3" x1="766.16" y1="170.68" x2="862.83" y2="170.68"/>
</svg>
