<?xml version="1.0" encoding="utf-8"?>
<!-- Generator: Adobe Illustrator 24.1.2, SVG Export Plug-In . SVG Version: 6.00 Build 0)  -->
<svg version="1.1" id="Layer_1" xmlns="http://www.w3.org/2000/svg" xmlns:xlink="http://www.w3.org/1999/xlink" x="0px" y="0px"
	 viewBox="0 0 366 253" style="enable-background:new 0 0 366 253;" xml:space="preserve">
<style type="text/css">
	.st0{clip-path:url(#SVGID_2_);fill:#231F20;}
	.st1{fill:none;stroke:#231F20;stroke-width:2;stroke-miterlimit:10;}
</style>
<g>
	<defs>
		<path id="SVGID_1_" d="M360.84,234.92c0,0-4.63,5.78-25.06,6.17c-20.44,0.38-18.51-11.95-18.51-11.95s-3.47,1.54-13.88,6.17
			c-10.41,4.63-16.19,3.86-16.19,3.86s-13.11,2.31-13.88-9.64s13.88-8.87,13.88-8.87s-5.01-11.18-45.88,3.08
			c-40.87,14.27-66.7,6.17-66.7,6.17s-29.82-5.37-28.67-32.29c1.16-26.92,14.46-30.32,27.62-31.14c17.51-1.08,29.58,9.06,29.58,9.06
			s12.34-38.17-37.79-37.79c-50.12,0.39-80.2,42.03-80.2,42.03S44.15,231,32.97,238.57c-11.18,7.57-21.59,0-21.59,0L8-14h358.41
			l-1.36,226.72L360.84,234.92z"/>
	</defs>
	<clipPath id="SVGID_2_">
		<use xlink:href="#SVGID_1_"  style="overflow:visible;"/>
	</clipPath>
	<path class="st0" d="M191.54,154.48c1.32,0,2.39,1.07,2.39,2.39c0,1.32-1.07,2.39-2.39,2.39c-1.32,0-2.39-1.07-2.39-2.39
		C189.15,155.55,190.22,154.48,191.54,154.48L191.54,154.48z M191.54,165.57c4.8,0,8.7-3.89,8.7-8.69c0-4.8-3.89-8.69-8.7-8.69
		s-8.69,3.89-8.69,8.69C182.85,161.68,186.74,165.57,191.54,165.57L191.54,165.57z"/>
	<path class="st0" d="M191.54,160.76c-1.34,0-2.65-0.7-3.37-1.94c-1.07-1.86-0.44-4.23,1.43-5.31c0.61-0.35,1.28-0.52,1.94-0.52
		c1.34,0,2.65,0.7,3.37,1.94c1.07,1.86,0.44,4.23-1.42,5.31C192.87,160.59,192.2,160.76,191.54,160.76L191.54,160.76z M188.94,143
		c-1.53,0.29-3.04,0.82-4.46,1.64c-0.21,0.12-0.41,0.26-0.61,0.39c0.44,1.34,0.37,2.84-0.32,4.2c-0.97,1.89-2.89,2.98-4.88,2.98
		c-0.15,0-0.3-0.01-0.45-0.02c-0.6,1.73-0.87,3.56-0.78,5.4c1.38,0.28,2.65,1.1,3.48,2.37c1.24,1.92,1.13,4.33-0.1,6.1
		c1.22,1.42,2.68,2.56,4.29,3.38c0.94-1.06,2.28-1.75,3.8-1.83c0.1-0.01,0.2-0.01,0.29-0.01c2.16,0,4.06,1.27,4.94,3.14
		c1.52-0.29,3.03-0.82,4.46-1.64c0.21-0.12,0.4-0.26,0.61-0.39c-0.45-1.34-0.37-2.84,0.32-4.2c0.96-1.9,2.88-2.98,4.87-2.98
		c0.15,0,0.3,0.01,0.45,0.02c0.61-1.73,0.87-3.56,0.78-5.4c-1.38-0.28-2.65-1.1-3.48-2.37c-1.24-1.92-1.13-4.33,0.1-6.1
		c-1.22-1.42-2.68-2.56-4.29-3.38c-0.93,1.06-2.28,1.75-3.8,1.83c-0.1,0-0.19,0.01-0.29,0.01
		C191.71,146.14,189.81,144.87,188.94,143L188.94,143z M191.54,161.96c0.89,0,1.77-0.24,2.54-0.68c1.17-0.68,2.01-1.77,2.37-3.09
		c0.35-1.31,0.17-2.68-0.51-3.86c-0.9-1.57-2.59-2.54-4.4-2.54c-0.89,0-1.76,0.24-2.54,0.68c-2.43,1.4-3.26,4.51-1.86,6.94
		C188.05,160.98,189.73,161.96,191.54,161.96L191.54,161.96z M188.33,144.36c1.22,1.83,3.31,2.98,5.54,2.98c0.12,0,0.23,0,0.35-0.01
		c1.47-0.08,2.83-0.62,3.93-1.55c0.96,0.57,1.84,1.26,2.62,2.06c-1.05,2.09-0.93,4.59,0.37,6.59c0.8,1.23,1.95,2.14,3.31,2.63
		c-0.02,1.12-0.17,2.22-0.47,3.29c-2.35,0.15-4.44,1.51-5.52,3.62c-0.67,1.31-0.88,2.77-0.62,4.19c-0.96,0.54-2,0.95-3.09,1.22
		c-1.22-1.83-3.31-2.98-5.54-2.98c-0.12,0-0.23,0-0.35,0.01c-1.46,0.08-2.83,0.62-3.93,1.55c-0.96-0.57-1.83-1.26-2.62-2.06
		c1.05-2.09,0.93-4.59-0.37-6.59c-0.8-1.23-1.95-2.14-3.31-2.63c0.02-1.12,0.18-2.22,0.48-3.29c2.35-0.15,4.44-1.51,5.52-3.62
		c0.67-1.31,0.88-2.77,0.62-4.19C186.2,145.05,187.24,144.64,188.33,144.36L188.33,144.36z"/>
	<path class="st0" d="M183.55,165.51c0-0.6,0.48-1.08,1.08-1.08c0.6,0,1.08,0.49,1.08,1.08c0,0.6-0.49,1.08-1.08,1.08
		C184.04,166.59,183.55,166.11,183.55,165.51L183.55,165.51z"/>
	<path class="st0" d="M194.97,168.02c-0.52-0.3-0.7-0.96-0.4-1.48c0.3-0.52,0.96-0.7,1.48-0.4c0.52,0.3,0.7,0.96,0.4,1.48
		C196.15,168.14,195.49,168.32,194.97,168.02L194.97,168.02z"/>
	<path class="st0" d="M202.96,159.45c-0.52,0.3-1.18,0.12-1.48-0.4c-0.3-0.52-0.12-1.18,0.4-1.48c0.51-0.3,1.18-0.12,1.48,0.4
		C203.66,158.49,203.48,159.15,202.96,159.45L202.96,159.45z"/>
	<path class="st0" d="M199.41,148.12c0,0.6-0.49,1.08-1.08,1.08c-0.6,0-1.09-0.49-1.09-1.08c0-0.6,0.49-1.08,1.09-1.08
		C198.93,147.04,199.41,147.52,199.41,148.12L199.41,148.12z"/>
	<path class="st0" d="M187.99,145.73c0.52,0.3,0.7,0.96,0.4,1.48c-0.3,0.52-0.96,0.7-1.48,0.4c-0.52-0.3-0.7-0.96-0.4-1.48
		C186.81,145.61,187.47,145.43,187.99,145.73L187.99,145.73z"/>
	<path class="st0" d="M180.12,154.18c0.52-0.3,1.18-0.12,1.48,0.4c0.3,0.52,0.12,1.18-0.4,1.48c-0.52,0.3-1.18,0.12-1.48-0.4
		C179.43,155.15,179.6,154.48,180.12,154.18L180.12,154.18z"/>
	<polygon class="st0" points="239.72,296.19 202.86,161.91 204.07,161.58 240.92,295.86 239.72,296.19 	"/>
	<path class="st0" d="M240.32,297.27c-0.55,0-1.05-0.36-1.2-0.92l-2.26-8.22c-0.18-0.66,0.21-1.35,0.87-1.53
		c0.65-0.18,1.35,0.21,1.53,0.87l2.26,8.22c0.18,0.66-0.21,1.35-0.87,1.53C240.54,297.26,240.43,297.27,240.32,297.27L240.32,297.27
		z"/>
	<polygon class="st0" points="128.48,289.68 127.32,289.23 178.52,157.43 179.67,157.88 128.48,289.68 	"/>
	<path class="st0" d="M127.9,290.7c-0.15,0-0.3-0.03-0.44-0.08c-0.64-0.25-0.96-0.97-0.72-1.61l3.06-7.96
		c0.25-0.64,0.97-0.96,1.61-0.71c0.64,0.25,0.96,0.97,0.72,1.61l-3.06,7.96C128.87,290.4,128.4,290.7,127.9,290.7L127.9,290.7z"/>
	<polygon class="st0" points="336.28,184.81 201.61,149.6 201.93,148.39 336.59,183.61 336.28,184.81 	"/>
	<path class="st0" d="M336.44,185.45c-0.1,0-0.21-0.01-0.31-0.04l-8.25-2.16c-0.66-0.17-1.06-0.85-0.89-1.52
		c0.18-0.66,0.86-1.06,1.52-0.89l8.25,2.16c0.67,0.17,1.06,0.85,0.89,1.52C337.5,185.08,336.99,185.45,336.44,185.45L336.44,185.45z
		"/>
	<polygon class="st0" points="274.06,278.67 185.62,168.58 186.59,167.8 275.02,277.89 274.06,278.67 	"/>
	<path class="st0" d="M274.54,279.53c-0.36,0-0.73-0.16-0.97-0.46l-5.36-6.63c-0.43-0.54-0.35-1.32,0.19-1.75
		c0.53-0.43,1.32-0.35,1.75,0.19l5.36,6.63c0.43,0.54,0.35,1.32-0.19,1.75C275.09,279.44,274.81,279.53,274.54,279.53L274.54,279.53
		z"/>
	<polygon class="st0" points="190.16,144.64 189.27,143.76 287.22,44.62 288.1,45.5 190.16,144.64 	"/>
	<path class="st0" d="M281.67,52.37c-0.32,0-0.63-0.12-0.87-0.36c-0.49-0.48-0.49-1.27-0.01-1.76l5.99-6.07
		c0.49-0.49,1.27-0.49,1.76-0.01c0.49,0.48,0.49,1.27,0.01,1.76L282.55,52C282.31,52.24,281.99,52.37,281.67,52.37L281.67,52.37z"/>
	<polygon class="st0" points="198.23,167.93 198.04,166.7 338.09,145.08 338.28,146.31 198.23,167.93 	"/>
	<path class="st0" d="M329.76,148.27c-0.6,0-1.13-0.44-1.23-1.05c-0.11-0.68,0.35-1.32,1.03-1.42l8.42-1.33
		c0.68-0.1,1.31,0.36,1.42,1.04c0.11,0.68-0.36,1.32-1.04,1.42l-8.42,1.33C329.89,148.26,329.82,148.27,329.76,148.27L329.76,148.27
		z"/>
	<polygon class="st0" points="179.07,152.37 142.16,17.89 143.36,17.56 180.27,152.04 179.07,152.37 	"/>
	<path class="st0" d="M145.02,27.19c-0.55,0-1.05-0.36-1.2-0.92l-2.26-8.22c-0.18-0.66,0.21-1.35,0.87-1.53
		c0.66-0.18,1.34,0.21,1.53,0.87l2.25,8.22c0.19,0.66-0.21,1.35-0.87,1.53C145.24,27.18,145.13,27.19,145.02,27.19L145.02,27.19z"/>
	<polygon class="st0" points="204.57,156.33 203.41,155.88 254.6,24.07 255.76,24.52 204.57,156.33 	"/>
	<path class="st0" d="M252.12,33.49c-0.15,0-0.3-0.03-0.45-0.08c-0.64-0.25-0.96-0.97-0.71-1.61l3.06-7.96
		c0.25-0.64,0.97-0.96,1.61-0.71c0.64,0.25,0.96,0.97,0.71,1.61l-3.06,7.96C253.09,33.19,252.62,33.49,252.12,33.49L252.12,33.49z"
		/>
	<polygon class="st0" points="181.05,165.33 46.49,130.15 46.8,128.94 181.37,164.12 181.05,165.33 	"/>
	<path class="st0" d="M54.89,132.94c-0.1,0-0.21-0.01-0.31-0.04l-8.25-2.16c-0.66-0.17-1.06-0.85-0.89-1.52
		c0.17-0.66,0.86-1.06,1.52-0.89l8.25,2.16c0.67,0.17,1.06,0.85,0.89,1.52C55.95,132.57,55.45,132.94,54.89,132.94L54.89,132.94z"/>
	<polygon class="st0" points="196.6,146.09 108.06,35.86 109.03,35.08 197.57,145.31 196.6,146.09 	"/>
	<path class="st0" d="M113.9,43.34c-0.36,0-0.72-0.16-0.97-0.46l-5.36-6.63c-0.43-0.53-0.35-1.32,0.19-1.75
		c0.54-0.43,1.32-0.35,1.75,0.19l5.36,6.63c0.43,0.53,0.35,1.32-0.19,1.75C114.45,43.25,114.18,43.34,113.9,43.34L113.9,43.34z"/>
	<polygon class="st0" points="95.86,269.13 94.98,268.26 192.83,169.21 193.72,170.08 95.86,269.13 	"/>
	<path class="st0" d="M95.42,269.94c-0.32,0-0.63-0.12-0.87-0.36c-0.49-0.48-0.49-1.27-0.01-1.76l5.99-6.07
		c0.48-0.49,1.27-0.49,1.76-0.01c0.49,0.48,0.49,1.27,0.01,1.76l-5.99,6.07C96.07,269.81,95.74,269.94,95.42,269.94L95.42,269.94z"
		/>
	<polygon class="st0" points="45,168.67 44.81,167.44 184.85,145.82 185.04,147.05 45,168.67 	"/>
	<path class="st0" d="M44.9,169.3c-0.6,0-1.13-0.44-1.23-1.05c-0.1-0.68,0.36-1.32,1.04-1.42l8.42-1.33
		c0.69-0.11,1.31,0.36,1.43,1.04c0.1,0.68-0.36,1.32-1.04,1.42l-8.42,1.33C45.03,169.29,44.96,169.3,44.9,169.3L44.9,169.3z"/>
	<polygon class="st0" points="160.98,301.17 159.79,300.82 197.9,169.08 199.09,169.42 160.98,301.17 	"/>
	<path class="st0" d="M160.38,302.24c-0.12,0-0.23-0.02-0.35-0.05c-0.66-0.19-1.04-0.88-0.84-1.54l2.37-8.19
		c0.19-0.66,0.89-1.04,1.54-0.85c0.66,0.19,1.04,0.88,0.85,1.54l-2.37,8.19C161.42,301.89,160.92,302.24,160.38,302.24
		L160.38,302.24z"/>
	<polygon class="st0" points="68.36,237.13 67.6,236.14 177.98,152.19 178.73,153.18 68.36,237.13 	"/>
	<path class="st0" d="M67.98,237.88c-0.37,0-0.75-0.17-0.99-0.49c-0.42-0.55-0.32-1.33,0.23-1.74l6.77-5.18
		c0.55-0.42,1.33-0.31,1.75,0.23c0.42,0.55,0.31,1.33-0.23,1.74l-6.77,5.18C68.51,237.79,68.24,237.88,67.98,237.88L67.98,237.88z"
		/>
	<polygon class="st0" points="274.58,229.32 205.25,157.44 206.14,156.58 275.47,228.46 275.11,229.88 	"/>
	<path class="st0" d="M300.77,257.17c-0.33,0-0.65-0.13-0.9-0.38l-5.9-6.15c-0.48-0.5-0.46-1.28,0.04-1.76
		c0.49-0.48,1.28-0.46,1.76,0.04l5.9,6.15c0.48,0.5,0.46,1.28-0.03,1.76C301.4,257.05,301.08,257.17,300.77,257.17L300.77,257.17z"
		/>
	<polygon class="st0" points="198.21,303.84 180.73,166.55 181.97,166.39 199.45,303.68 198.21,303.84 	"/>
	<path class="st0" d="M198.83,305.01c-0.61,0-1.15-0.46-1.23-1.08l-1.1-8.45c-0.09-0.68,0.39-1.31,1.08-1.39
		c0.69-0.09,1.31,0.39,1.4,1.07l1.1,8.45c0.09,0.68-0.39,1.31-1.07,1.39C198.93,305,198.88,305.01,198.83,305.01L198.83,305.01z"/>
	<polygon class="st0" points="198.75,145.23 198.45,144.02 331.78,111.2 332.08,112.4 198.75,145.23 	"/>
	<path class="st0" d="M323.66,115.08c-0.56,0-1.07-0.38-1.21-0.95c-0.16-0.67,0.24-1.34,0.91-1.51l8.28-2.04
		c0.67-0.17,1.34,0.24,1.51,0.91c0.16,0.67-0.24,1.34-0.91,1.51l-8.28,2.04C323.85,115.07,323.75,115.08,323.66,115.08
		L323.66,115.08z"/>
	<polygon class="st0" points="322.15,224.58 194.53,171.08 195,169.93 322.63,223.43 322.15,224.58 	"/>
	<path class="st0" d="M322.4,225.25c-0.16,0-0.33-0.03-0.48-0.1l-7.88-3.27c-0.63-0.26-0.94-0.99-0.67-1.63
		c0.26-0.64,0.99-0.94,1.63-0.67l7.87,3.27c0.64,0.26,0.94,0.99,0.67,1.63C323.34,224.96,322.88,225.25,322.4,225.25L322.4,225.25z"
		/>
	<polygon class="st0" points="184.98,145.06 183.79,144.71 222.11,12.58 223.3,12.93 184.98,145.06 	"/>
	<path class="st0" d="M220.33,22.19c-0.11,0-0.23-0.02-0.35-0.05c-0.66-0.19-1.04-0.88-0.85-1.54l2.38-8.19
		c0.19-0.66,0.88-1.04,1.54-0.85c0.66,0.19,1.04,0.88,0.85,1.54l-2.38,8.19C221.36,21.83,220.87,22.19,220.33,22.19L220.33,22.19z"
		/>
	<polygon class="st0" points="205.57,161.21 204.82,160.22 314.73,76.63 315.48,77.62 205.57,161.21 	"/>
	<path class="st0" d="M308.34,83.55c-0.37,0-0.75-0.17-0.99-0.49c-0.42-0.55-0.31-1.33,0.23-1.74l6.77-5.18
		c0.55-0.42,1.33-0.31,1.75,0.23c0.42,0.55,0.31,1.33-0.23,1.74l-6.77,5.18C308.86,83.46,308.6,83.55,308.34,83.55L308.34,83.55z"/>
	<polygon class="st0" points="176.94,157.18 81.86,58.26 82.76,57.4 177.84,156.32 176.94,157.18 	"/>
	<path class="st0" d="M88.21,65.22c-0.33,0-0.65-0.13-0.9-0.38l-5.9-6.15c-0.47-0.5-0.46-1.28,0.04-1.76
		c0.49-0.48,1.28-0.46,1.76,0.04l5.9,6.15c0.48,0.5,0.46,1.28-0.03,1.76C88.83,65.11,88.52,65.22,88.21,65.22L88.21,65.22z"/>
	<polygon class="st0" points="201.13,147.46 183.64,10.07 184.87,9.91 202.36,147.3 201.13,147.46 	"/>
	<path class="st0" d="M185.35,19.69c-0.61,0-1.15-0.46-1.23-1.08l-1.1-8.45c-0.09-0.68,0.39-1.31,1.08-1.39
		c0.69-0.09,1.31,0.39,1.39,1.07l1.1,8.45c0.09,0.68-0.39,1.31-1.08,1.39C185.46,19.68,185.41,19.69,185.35,19.69L185.35,19.69z"/>
	<polygon class="st0" points="51.3,202.55 51,201.35 184.21,168.52 184.51,169.73 51.3,202.55 	"/>
	<path class="st0" d="M51.15,203.2c-0.56,0-1.07-0.38-1.21-0.95c-0.16-0.67,0.25-1.34,0.91-1.51l8.28-2.04
		c0.67-0.16,1.34,0.24,1.51,0.91c0.16,0.67-0.24,1.34-0.91,1.51l-8.28,2.04C51.35,203.18,51.24,203.2,51.15,203.2L51.15,203.2z"/>
	<polygon class="st0" points="188.17,143.86 60.45,90.32 60.93,89.17 188.65,142.71 188.17,143.86 	"/>
	<path class="st0" d="M68.56,94.26c-0.16,0-0.32-0.03-0.48-0.1l-7.87-3.27c-0.63-0.26-0.94-0.99-0.67-1.63
		c0.26-0.64,0.99-0.94,1.63-0.67l7.87,3.27c0.63,0.26,0.94,0.99,0.67,1.63C69.51,93.97,69.05,94.26,68.56,94.26L68.56,94.26z"/>
	<path class="st0" d="M191.54,2.58c-85.21,0-154.29,69.08-154.29,154.29s69.08,154.29,154.29,154.29
		c85.21,0,154.29-69.08,154.29-154.29S276.75,2.58,191.54,2.58L191.54,2.58z M191.54,11.29c38.89,0,75.45,15.14,102.94,42.64
		c27.5,27.5,42.64,64.06,42.64,102.94c0,38.89-15.15,75.45-42.64,102.94c-27.5,27.5-64.06,42.64-102.94,42.64
		c-38.89,0-75.44-15.14-102.94-42.64c-27.5-27.5-42.64-64.06-42.64-102.94c0-38.89,15.14-75.45,42.64-102.94
		C116.1,26.44,152.66,11.29,191.54,11.29L191.54,11.29z"/>
	<path class="st0" d="M189.9,288.25h2.14c0.35,0,0.64,0.29,0.64,0.64v14.23c0,0.35-0.29,0.64-0.64,0.64h-2.14
		c-0.35,0-0.64-0.29-0.64-0.64v-14.23C189.26,288.54,189.55,288.25,189.9,288.25L189.9,288.25z"/>
	<path class="st0" d="M190.97,285.19L190.97,285.19c0.69,0,1.26,0.56,1.26,1.26v3.62h-2.51v-3.62
		C189.72,285.76,190.28,285.19,190.97,285.19L190.97,285.19z"/>
</g>
<path class="st1" d="M362.53,234.25c0,0-4.63,5.78-25.06,6.17c-20.44,0.39-18.51-11.95-18.51-11.95s-3.47,1.54-13.88,6.17
	c-10.41,4.63-16.19,3.86-16.19,3.86s-13.11,2.31-13.88-9.64s13.88-8.87,13.88-8.87s-5.01-11.18-45.88,3.08s-66.7,6.17-66.7,6.17
	s-32.34-4.82-29.83-32.81c2.41-26.84,15.62-29.8,28.77-30.62c17.51-1.08,29.58,9.06,29.58,9.06s10.88-38.18-37.79-37.79
	c-50.12,0.4-80.2,42.03-80.2,42.03s-42.5,50.44-53.68,58.01c-11.18,7.57-21.59,0-21.59,0"/>
</svg>
