<?xml version="1.0" encoding="UTF-8"?>
<svg id="Layer_1" data-name="Layer 1" xmlns="http://www.w3.org/2000/svg" viewBox="0 0 216.35 202.99">
  <defs>
    <style>
      .cls-1 {
        stroke-miterlimit: 10;
      }

      .cls-1, .cls-2 {
        fill: none;
        stroke: #000;
      }

      .cls-3 {
        fill: #fff;
        stroke: #fff;
      }

      .cls-3, .cls-2 {
        stroke-linecap: round;
        stroke-linejoin: round;
      }

      .cls-2 {
        stroke-width: 2px;
      }

      .cls-4 {
        fill: #231f20;
      }
    </style>
  </defs>
  <g>
    <path d="m108.09,95.93c.76.02,1.36.66,1.34,1.42s-.66,1.36-1.42,1.34-1.36-.66-1.33-1.42.66-1.36,1.42-1.34h0Zm-.2,6.4c2.77.09,5.09-2.09,5.18-4.86s-2.09-5.09-4.86-5.18-5.09,2.09-5.17,4.86,2.08,5.09,4.85,5.17h0Z"/>
    <path d="m107.98,99.56c-.77-.02-1.52-.45-1.91-1.18-.58-1.09-.17-2.45.92-3.04.36-.19.75-.28,1.13-.27.77.02,1.52.45,1.91,1.18.59,1.09.17,2.45-.92,3.04-.36.19-.75.28-1.13.26h0Zm-1.18-10.29c-.89.14-1.77.42-2.6.86-.13.07-.24.14-.36.22.23.78.16,1.65-.26,2.42-.59,1.08-1.72,1.67-2.87,1.63-.09,0-.17,0-.26-.02-.38.98-.57,2.04-.55,3.1.79.19,1.51.68,1.97,1.43.68,1.13.57,2.52-.17,3.52.67.84,1.5,1.52,2.41,2.03.56-.59,1.35-.97,2.22-.99.06,0,.11,0,.17,0,1.25.04,2.32.81,2.79,1.9.88-.14,1.76-.42,2.6-.86.12-.07.24-.14.36-.22-.23-.78-.16-1.65.26-2.42.59-1.08,1.72-1.67,2.87-1.63.09,0,.17,0,.26.02.38-.98.57-2.04.55-3.1-.79-.19-1.51-.68-1.97-1.43-.68-1.13-.57-2.52.17-3.51-.68-.84-1.5-1.52-2.41-2.03-.56.59-1.35.97-2.22.99-.06,0-.11,0-.17,0-1.25-.04-2.32-.81-2.79-1.9h0Zm1.16,10.98c.51.02,1.02-.1,1.48-.35.69-.37,1.19-.99,1.42-1.74.23-.75.15-1.54-.22-2.23-.49-.92-1.45-1.51-2.49-1.55-.51-.02-1.02.1-1.48.35-1.43.76-1.96,2.54-1.2,3.97.49.92,1.45,1.51,2.49,1.55h0Zm-1.53-10.21c.67,1.08,1.85,1.78,3.14,1.82.07,0,.14,0,.2,0,.85-.02,1.64-.31,2.3-.82.54.35,1.04.76,1.47,1.23-.64,1.19-.62,2.63.1,3.81.44.72,1.09,1.27,1.86,1.58-.03.64-.14,1.28-.33,1.89-1.36.04-2.59.79-3.25,1.99-.41.74-.56,1.58-.44,2.41-.57.29-1.17.51-1.81.65-.67-1.08-1.85-1.78-3.14-1.82-.07,0-.14,0-.2,0-.85.02-1.64.31-2.3.82-.54-.35-1.03-.76-1.47-1.23.64-1.19.62-2.63-.1-3.81-.44-.72-1.09-1.27-1.86-1.58.03-.64.14-1.28.34-1.89,1.36-.04,2.59-.79,3.25-1.99.41-.74.56-1.58.44-2.41.57-.29,1.17-.51,1.81-.65h0Z"/>
    <path d="m103.28,102.15c.01-.35.3-.62.64-.61s.62.3.61.65-.3.62-.64.61-.62-.3-.61-.65h0Z"/>
    <path d="m109.82,103.81c-.29-.18-.38-.57-.2-.86.18-.29.57-.38.86-.2.29.18.38.57.2.86-.18.29-.57.38-.86.2h0Z"/>
    <path d="m114.59,99.01c-.3.16-.68.05-.85-.26-.16-.3-.05-.68.26-.85.3-.16.68-.05.85.26.16.3.05.68-.26.85h0Z"/>
    <path d="m112.75,92.41c-.01.35-.3.62-.64.61s-.62-.3-.61-.65.3-.62.65-.61.62.3.61.65h0Z"/>
    <path d="m106.21,90.82c.29.18.38.57.2.86-.18.29-.57.38-.86.2-.29-.18-.38-.57-.2-.86.18-.29.57-.38.86-.2h0Z"/>
    <path d="m101.51,95.55c.3-.16.68-.05.85.26.16.3.05.68-.26.85-.3.16-.68.05-.85-.26-.16-.3-.05-.68.26-.85h0Z"/>
    <polygon points="133.29 178.57 114.49 100.43 115.19 100.26 133.98 178.4 133.29 178.57 133.29 178.57"/>
    <path d="m133.61,179.2c-.32-.01-.6-.23-.67-.55l-1.15-4.78c-.09-.39.14-.77.53-.87.38-.09.77.14.87.53l1.15,4.78c.09.39-.14.77-.53.87-.06.02-.13.02-.19.02h0Z"/>
    <polygon points="69.23 172.77 68.57 172.49 100.53 97.39 101.19 97.67 69.23 172.77 69.23 172.77"/>
    <path d="m68.88,173.35c-.09,0-.17-.02-.26-.06-.37-.15-.54-.58-.38-.94l1.91-4.53c.15-.37.58-.54.94-.38.37.15.54.58.38.94l-1.91,4.53c-.12.28-.4.45-.68.44h0Z"/>
    <polygon points="191.04 116.08 113.99 93.3 114.2 92.61 191.24 115.4 191.04 116.08 191.04 116.08"/>
    <path d="m191.11,116.46c-.06,0-.12-.01-.18-.03l-4.72-1.4c-.38-.11-.6-.51-.49-.89.11-.38.51-.6.89-.49l4.72,1.4c.38.11.6.51.49.89-.09.32-.39.52-.71.51h0Z"/>
    <polygon points="153.42 169.09 104.42 103.95 104.99 103.52 153.99 168.66 153.42 169.09 153.42 169.09"/>
    <path d="m153.68,169.59c-.21,0-.42-.1-.55-.28l-2.97-3.92c-.24-.32-.18-.77.14-1.01.31-.24.77-.18,1.01.14l2.97,3.92c.24.32.18.77-.14,1.01-.13.1-.3.15-.45.15h0Z"/>
    <polygon points="107.48 90.23 106.98 89.71 165.3 34.31 165.8 34.83 107.48 90.23 107.48 90.23"/>
    <path d="m161.96,38.68c-.18,0-.36-.08-.5-.22-.27-.29-.26-.74.03-1.02l3.57-3.39c.29-.27.74-.26,1.02.03.27.29.26.74-.03,1.02l-3.57,3.39c-.14.14-.33.2-.52.2h0Z"/>
    <polygon points="111.71 103.81 111.62 103.1 192.81 93.2 192.89 93.91 111.71 103.81 111.71 103.81"/>
    <path d="m187.94,94.89c-.35-.01-.65-.27-.69-.63-.05-.39.23-.75.62-.8l4.88-.61c.39-.05.75.23.8.62.05.39-.23.75-.62.8l-4.88.61s-.08,0-.11,0h0Z"/>
    <polygon points="100.94 94.49 82.12 16.23 82.81 16.06 101.64 94.32 100.94 94.49 100.94 94.49"/>
    <path d="m83.59,21.65c-.32-.01-.6-.23-.67-.55l-1.15-4.78c-.09-.39.15-.77.53-.87.38-.09.77.14.87.53l1.15,4.78c.09.39-.14.77-.53.87-.06.02-.13.02-.19.02h0Z"/>
    <polygon points="115.58 97.24 114.91 96.95 146.87 21.86 147.53 22.14 115.58 97.24 115.58 97.24"/>
    <path d="m145.26,27.25c-.09,0-.17-.02-.26-.06-.37-.15-.54-.58-.38-.94l1.91-4.53c.16-.36.58-.54.94-.38.36.15.54.58.38.94l-1.91,4.53c-.12.28-.39.45-.68.44h0Z"/>
    <polygon points="101.84 102 24.86 79.23 25.07 78.54 102.05 101.31 101.84 102 101.84 102"/>
    <path d="m29.66,81c-.06,0-.12-.01-.18-.03l-4.72-1.4c-.38-.11-.6-.51-.49-.89.11-.38.51-.6.89-.49l4.72,1.4c.38.11.6.51.49.89-.09.32-.39.52-.71.51h0Z"/>
    <polygon points="111.17 91.18 62.11 25.97 62.69 25.54 111.74 90.75 111.17 91.18 111.17 91.18"/>
    <path d="m65.34,30.39c-.21,0-.41-.1-.55-.28l-2.97-3.92c-.24-.32-.18-.77.14-1.01.32-.24.77-.18,1.01.14l2.97,3.92c.24.32.18.77-.14,1.01-.14.1-.3.15-.46.15h0Z"/>
    <polygon points="50.8 160.32 50.3 159.8 108.57 104.45 109.06 104.97 50.8 160.32 50.8 160.32"/>
    <path d="m50.53,160.77c-.18,0-.36-.08-.5-.22-.27-.29-.26-.74.03-1.02l3.57-3.39c.29-.27.74-.26,1.01.03.27.29.26.74-.03,1.02l-3.57,3.39c-.14.14-.33.2-.52.2h0Z"/>
    <polygon points="23.29 101.43 23.21 100.71 104.39 90.81 104.48 91.53 23.29 101.43 23.29 101.43"/>
    <path d="m23.23,101.79c-.35-.01-.64-.27-.69-.63-.05-.39.23-.75.62-.8l4.88-.61c.4-.05.75.23.8.62.05.39-.23.75-.62.8l-4.88.61s-.08,0-.11,0h0Z"/>
    <polygon points="87.77 179.99 87.09 179.77 111.49 104.47 112.18 104.69 87.77 179.99 87.77 179.99"/>
    <path d="m87.41,180.6c-.07,0-.13-.01-.2-.03-.38-.12-.58-.53-.46-.9l1.52-4.68c.12-.38.53-.58.9-.46.38.12.58.53.46.9l-1.52,4.68c-.1.31-.39.51-.71.5h0Z"/>
    <polygon points="35.51 141.35 35.1 140.76 100.31 94.36 100.73 94.94 35.51 141.35 35.51 141.35"/>
    <path d="m35.28,141.77c-.22,0-.43-.11-.56-.3-.23-.32-.16-.77.17-1l4-2.87c.33-.23.77-.16,1,.17.23.32.16.77-.17,1l-4,2.87c-.13.1-.29.14-.44.13h0Z"/>
    <polygon points="168.98 156.7 115.95 97.89 116.48 97.41 169.51 156.22 168.98 156.7 168.98 156.7"/>
    <path d="m169.22,157.17c-.19,0-.37-.09-.51-.24l-3.29-3.66c-.27-.29-.24-.75.05-1.01.29-.27.75-.24,1.01.05l3.29,3.66c.27.29.24.75-.05,1.01-.14.13-.33.19-.51.18h0Z"/>
    <polygon points="109.2 182.22 101.64 102.7 102.35 102.63 109.92 182.15 109.2 182.22 109.2 182.22"/>
    <path d="m109.54,182.9c-.35-.01-.65-.28-.69-.65l-.48-4.9c-.04-.39.25-.75.65-.78.4-.04.75.25.79.64l.48,4.9c.04.39-.25.75-.64.78-.03,0-.06,0-.1,0h0Z"/>
    <polygon points="112.42 90.73 112.27 90.02 189.79 73.54 189.94 74.24 112.42 90.73 112.42 90.73"/>
    <path d="m185.03,75.63c-.32-.01-.61-.24-.68-.57-.08-.39.16-.77.55-.85l4.81-1.02c.39-.08.77.17.85.55.08.39-.16.77-.55.85l-4.81,1.02c-.06.01-.11.02-.17.02h0Z"/>
    <polygon points="182.16 138.77 109.51 105.56 109.81 104.91 182.45 138.11 182.16 138.77 182.16 138.77"/>
    <path d="m182.28,139.16c-.09,0-.19-.02-.27-.06l-4.48-2.03c-.36-.16-.52-.59-.36-.95.16-.36.59-.52.95-.36l4.48,2.03c.36.16.52.59.36.95-.12.27-.39.43-.67.42h0Z"/>
    <polygon points="104.48 90.38 103.8 90.16 128.33 14.63 129.01 14.86 104.48 90.38 104.48 90.38"/>
    <path d="m127.13,20.14c-.06,0-.13-.01-.2-.03-.38-.12-.58-.53-.46-.9l1.52-4.68c.12-.38.53-.58.9-.46.38.12.58.53.46.9l-1.52,4.68c-.1.31-.39.51-.71.5h0Z"/>
    <polygon points="116.06 100.07 115.65 99.49 180.59 53.28 181 53.86 116.06 100.07 116.06 100.07"/>
    <path d="m176.77,57.15c-.22,0-.43-.11-.56-.3-.23-.32-.16-.77.17-1l4-2.86c.32-.23.77-.16,1,.17.23.32.16.77-.17,1l-4,2.86c-.13.1-.29.14-.44.13h0Z"/>
    <polygon points="99.62 97.22 46.59 38.41 47.12 37.93 100.15 96.74 99.62 97.22 99.62 97.22"/>
    <path d="m50.12,42.55c-.19,0-.37-.09-.51-.24l-3.29-3.66c-.26-.29-.24-.75.05-1.01.29-.27.75-.24,1.01.05l3.29,3.66c.27.3.24.75-.05,1.01-.14.13-.32.19-.51.18h0Z"/>
    <polygon points="113.75 92.06 106.18 12.48 106.9 12.41 114.47 91.99 113.75 92.06 113.75 92.06"/>
    <path d="m107,18.06c-.35-.01-.65-.28-.69-.65l-.48-4.9c-.04-.39.25-.75.65-.78.4-.04.75.25.78.64l.48,4.9c.04.39-.25.75-.65.78-.03,0-.06,0-.09,0h0Z"/>
    <polygon points="26.31 121.09 26.16 120.39 103.61 103.9 103.76 104.6 26.31 121.09 26.31 121.09"/>
    <path d="m26.21,121.46c-.32-.01-.61-.24-.68-.57-.08-.39.17-.77.56-.85l4.81-1.02c.39-.08.77.17.85.55.08.39-.16.77-.56.85l-4.81,1.02c-.06.01-.12.02-.17.02h0Z"/>
    <polygon points="98.13 86.45 33.65 56.44 33.91 55.86 98.39 85.86 97.81 86.12 98.13 86.45"/>
    <path d="m38.25,58.94c-.09,0-.18-.02-.27-.06l-4.48-2.03c-.36-.16-.52-.59-.36-.95.16-.36.59-.52.95-.36l4.48,2.03c.36.16.52.59.36.95-.12.27-.39.43-.68.42h0Z"/>
    <path d="m111.14.05C57.43-1.66,12.49,40.5,10.79,94.22c-1.71,53.72,40.45,98.65,94.17,100.36,53.72,1.71,98.65-40.45,100.36-94.17C207.02,46.69,164.86,1.76,111.14.05h0Zm-.23,7.18c24.06.77,46.39,10.86,62.86,28.41,16.47,17.56,25.12,40.48,24.36,64.54-.77,24.06-10.85,46.39-28.41,62.86-17.56,16.47-40.48,25.12-64.54,24.36-24.06-.77-46.39-10.86-62.86-28.41-16.48-17.56-25.13-40.48-24.36-64.54.77-24.06,10.85-46.39,28.41-62.86C63.93,15.11,86.85,6.46,110.92,7.23h0Z"/>
    <path d="m110.88,8.3C61.72,6.74,20.6,45.32,19.04,94.48c-1.56,49.16,37.02,90.28,86.18,91.84,49.16,1.56,90.28-37.02,91.84-86.18,1.56-49.16-37.02-90.28-86.18-91.84h0Zm-.16,5.02c22.43.71,43.25,10.12,58.6,26.49,15.36,16.37,23.42,37.74,22.71,60.17-.71,22.43-10.12,43.25-26.49,58.6-16.37,15.36-37.74,23.42-60.17,22.71-22.43-.71-43.24-10.12-58.6-26.49-15.36-16.37-23.42-37.74-22.71-60.17.71-22.43,10.12-43.25,26.49-58.6,16.37-15.36,37.74-23.42,60.17-22.71h0Z"/>
    <path d="m104.69,173.07l1.23.04c.2,0,.37.18.36.38l-.26,8.21c0,.2-.18.36-.38.36l-1.23-.04c-.2,0-.37-.18-.36-.38l.26-8.21c0-.2.18-.36.38-.36h0Z"/>
    <path d="m105.37,171.33h0c.4.01.71.35.7.75l-.07,2.09-1.45-.05.07-2.09c.01-.4.35-.71.75-.7h0Z"/>
  </g>
  <path class="cls-3" d="m.5,194.93l212,7.56,3.26-102.61.09-2.77c-4.04.05-8.55,1.78-12.58,2.18-7.93.79-12.89-1.09-15.08-6.61-3.47,1.43-6.87,3.11-10.44,4.21-3.87,1.2-7.88,1.89-11.69-.63-2.65-1.76-3.66-3.83-2.63-6.11,1.28-2.84,4.47-4.74,7.09-3.87l-.24-.5c-.96-1.31-2.33-2.5-3.85-2.59-7.82-.45-17.15,2.13-24.58,3.82-9.38,2.13-18.73,4.31-28.52,3.76-9.75-.55-17.43-3.61-23-11.44-5.57-7.86-3.88-19.22,3.6-24.19,8.92-5.94,23.62-3.37,29.3,4.43l.52-1.02c2.25-3.77.9-9.95-2.19-13.85-4.16-5.25-9.88-7.66-16.4-8.29-12-1.16-22.76,2.31-32.95,8.43-12.43,7.46-21.36,18.46-30.72,29.08-5.86,6.65-11.55,13.46-18.02,19.55-3.17,2.99-6.77,5.34-11.19,5.98-2.74.4-7.09-.51-8.61-3.52L.5,194.93Z"/>
  <path class="cls-2" d="m215.04,96.96c-4.04.05-7.74,1.8-11.77,2.21-7.93.79-12.89-1.09-15.08-6.61-3.47,1.43-6.87,3.11-10.44,4.21-3.87,1.2-7.88,1.89-11.69-.63-2.65-1.76-3.66-3.83-2.63-6.11,1.28-2.84,4.47-4.74,7.09-3.87l-.24-.5c-.96-1.31-3.29-2.44-4.82-2.53-7.82-.45-17.15,2.13-24.58,3.82-9.38,2.13-18.73,4.31-28.52,3.76-9.75-.55-16.75-4.61-22.31-12.45-5.57-7.86-2.92-18.25,4.56-23.23,8.92-5.94,22.93-3.39,28.61,4.41l.52-1.02c2.25-3.77.9-9.95-2.19-13.85-4.16-5.25-9.88-7.66-16.4-8.29-12-1.16-22.76,2.31-32.95,8.43-12.43,7.46-21.36,18.46-30.72,29.08-5.86,6.65-11.55,13.46-18.02,19.55-3.17,2.99-6.77,5.34-11.19,5.98-2.74.4-5.49.36-7.01-2.66"/>
  <g>
    <path class="cls-4" d="m13.28,129.24v-14.58c0-.41.35-.75.81-.75s.81.35.81.75v14.58c0,.46-.35.81-.81.81s-.81-.35-.81-.81Z"/>
    <path class="cls-4" d="m25.61,129.24v-14.58c0-.41.35-.75.81-.75.23,0,.4.12.52.23.06,0,.06.06.12.06q0,.06.06.12l10.99,12.73v-12.38c0-.41.41-.75.81-.75s.75.35.75.75v14.58c0,.46-.35.81-.75.81-.23,0-.4-.12-.58-.29l-11.11-12.96v12.44c0,.46-.35.81-.81.81s-.81-.35-.81-.81Z"/>
    <path class="cls-4" d="m63.74,114.31c.17-.35.64-.58,1.04-.35.35.17.52.64.35,1.04l-7.06,14.58c-.12.29-.41.46-.69.46s-.52-.17-.69-.46l-7-14.58c-.17-.41-.06-.87.35-1.04.41-.23.87,0,1.04.35l6.31,13.13,6.36-13.13Z"/>
    <path class="cls-4" d="m75.94,130.05h-.23c-.35-.06-.64-.4-.64-.81v-14.58c0-.35.29-.69.64-.75h12.09c.46,0,.81.35.81.75s-.35.75-.81.75h-11.23v6.83h8.1c.46,0,.81.35.81.75s-.35.75-.81.75h-8.1v4.69h11.23c.46,0,.81.35.81.81s-.35.81-.81.81h-11.86Z"/>
    <path class="cls-4" d="m98.74,129.24v-14.58c0-.41.35-.75.75-.75h5.5c1.16,0,2.2.06,3.07.29.87.17,1.68.52,2.31.93,1.21.81,1.85,2.14,1.85,3.7s-.64,2.89-1.97,3.76c-1.21.75-3.01,1.16-5.27,1.16l6.94,4.86c.35.23.46.75.17,1.1-.17.17-.41.35-.64.35-.12,0-.29-.06-.46-.17l-8.68-6.13h-2.03v5.5c0,.46-.35.81-.81.81-.41,0-.75-.35-.75-.81Zm6.25-7c1.97,0,3.47-.35,4.46-.98.81-.58,1.27-1.33,1.27-2.43s-.46-1.85-1.27-2.43c-.93-.64-2.43-.98-4.46-.98h-4.69v6.83h4.69Z"/>
    <path class="cls-4" d="m123.15,130.05c-.41,0-.75-.35-.75-.81v-14.58c0-.41.35-.75.75-.75.46,0,.81.35.81.75v13.77h9.6c.46,0,.81.35.81.81s-.35.81-.81.81h-10.42Z"/>
    <path class="cls-4" d="m143.06,121.95c0-4.46,3.59-8.04,8.04-8.04s8.1,3.59,8.1,8.04-3.64,8.1-8.1,8.1-8.04-3.64-8.04-8.1Zm1.5,0c0,3.59,2.95,6.48,6.54,6.48s6.48-2.89,6.48-6.48-2.89-6.54-6.48-6.54-6.54,2.95-6.54,6.54Z"/>
    <path class="cls-4" d="m168.74,121.95c0-4.46,3.59-8.04,8.04-8.04,1.39,0,2.78.35,3.99,1.04,1.16.69,2.2,1.68,2.89,2.78.23.41.12.87-.23,1.1-.4.23-.87.12-1.1-.23-1.21-1.97-3.24-3.18-5.55-3.18-3.59,0-6.48,2.95-6.48,6.54s2.89,6.48,6.48,6.48c2.31,0,4.34-1.16,5.55-3.07.23-.41.7-.52,1.1-.29.35.23.46.69.23,1.04-.69,1.21-1.74,2.2-2.89,2.83-1.22.69-2.6,1.1-3.99,1.1-4.46,0-8.04-3.64-8.04-8.1Z"/>
    <path class="cls-4" d="m205.95,129.3v-5.44h-10.47v5.44c0,.41-.35.75-.75.75s-.75-.35-.75-.75v-14.58c0-.46.35-.81.75-.81s.75.35.75.81v7.52h10.47v-7.52c0-.46.35-.81.75-.81s.75.35.75.81v14.58c0,.41-.35.75-.75.75s-.75-.35-.75-.75Z"/>
    <path class="cls-4" d="m60.62,157.87c-.22,0-.39-.17-.39-.39v-6.94c0-.17.14-.33.33-.36h2.42c.55,0,1.05.03,1.46.14.41.08.8.25,1.1.44.58.39.88,1.02.88,1.76s-.3,1.38-.94,1.79l-.14.08.39.17c.8.41.96.99.96,1.43s-.19,1.05-.99,1.43c-.58.28-1.41.44-2.48.44h-2.62Zm2.37-3.72h.28c.8-.03,1.41-.19,1.85-.47.39-.28.61-.63.61-1.16s-.22-.88-.61-1.16c-.44-.3-1.16-.47-2.12-.47h-2.01v3.25h2.01Zm0,.72h-2.01v2.23h2.26c.94,0,1.68-.11,2.15-.33.25-.14.55-.33.55-.77,0-.22-.03-.52-.52-.77-.47-.22-1.19-.36-2.12-.36h-.3Z"/>
    <path class="cls-4" d="m73.81,157.48v-6.94c0-.19.17-.36.39-.36s.39.17.39.36v6.94c0,.22-.17.39-.39.39s-.39-.17-.39-.39Z"/>
    <path class="cls-4" d="m81.83,157.48v-6.94c0-.19.17-.36.39-.36s.39.17.39.36v4.38l5.32-4.66c.17-.14.39-.14.52.03.14.17.11.39-.03.52l-4.3,3.75,4.24,2.59c.17.11.25.36.14.52-.08.11-.19.19-.33.19-.08,0-.14-.03-.19-.08l-4.44-2.7-.94.83v1.57c0,.22-.17.39-.39.39s-.39-.17-.39-.39Z"/>
    <path class="cls-4" d="m95.94,157.87h-.11c-.17-.03-.3-.19-.3-.39v-6.94c0-.17.14-.33.3-.36h5.76c.22,0,.39.17.39.36s-.17.36-.39.36h-5.35v3.25h3.86c.22,0,.39.17.39.36s-.17.36-.39.36h-3.86v2.23h5.35c.22,0,.39.17.39.39s-.17.39-.39.39h-5.65Z"/>
    <path class="cls-4" d="m124.51,157.51v-2.59h-4.99v2.59c0,.19-.17.36-.36.36s-.36-.17-.36-.36v-6.94c0-.22.17-.39.36-.39s.36.17.36.39v3.58h4.99v-3.58c0-.22.17-.39.36-.39s.36.17.36.39v6.94c0,.19-.17.36-.36.36s-.36-.17-.36-.36Z"/>
    <path class="cls-4" d="m132.47,157.48v-6.94c0-.19.17-.36.39-.36s.39.17.39.36v6.94c0,.22-.17.39-.39.39s-.39-.17-.39-.39Z"/>
    <path class="cls-4" d="m140.49,157.48v-6.94c0-.19.17-.36.36-.36h2.62c.55,0,1.05.03,1.46.14.41.08.8.25,1.1.44.58.39.88,1.02.88,1.76s-.3,1.38-.94,1.79c-.58.36-1.43.55-2.51.55l3.31,2.32c.17.11.22.36.08.52-.08.08-.19.17-.3.17-.06,0-.14-.03-.22-.08l-4.13-2.92h-.96v2.62c0,.22-.17.39-.39.39-.19,0-.36-.17-.36-.39Zm2.98-3.33c.94,0,1.65-.17,2.12-.47.39-.28.61-.63.61-1.16s-.22-.88-.61-1.16c-.44-.3-1.16-.47-2.12-.47h-2.23v3.25h2.23Z"/>
    <path class="cls-4" d="m154.32,157.87h-.11c-.17-.03-.3-.19-.3-.39v-6.94c0-.17.14-.33.3-.36h5.76c.22,0,.39.17.39.36s-.17.36-.39.36h-5.35v3.25h3.86c.22,0,.39.17.39.36s-.17.36-.39.36h-3.86v2.23h5.35c.22,0,.39.17.39.39s-.17.39-.39.39h-5.65Z"/>
  </g>
  <line class="cls-1" x1="53.16" y1="154.3" x2="4.52" y2="154.3"/>
  <line class="cls-1" x1="215.93" y1="154.3" x2="167.29" y2="154.3"/>
</svg>